<svg xmlns="http://www.w3.org/2000/svg" width="1080" height="2400" viewBox="0 0 1080 2400">
  <defs>
    <filter id="softShadow" x="-20%" y="-25%" width="145%" height="160%">
      <feDropShadow dx="3" dy="4" stdDeviation="1.6" flood-color="#4e5660" flood-opacity="0.42"/>
    </filter>
    <filter id="smallShadow" x="-20%" y="-25%" width="145%" height="160%">
      <feDropShadow dx="2" dy="2" stdDeviation="1.0" flood-color="#4e5660" flood-opacity="0.36"/>
    </filter>
    <linearGradient id="titleSilver" x1="0" y1="82" x2="0" y2="274" gradientUnits="userSpaceOnUse">
      <stop offset="0" stop-color="#ffffff"/>
      <stop offset="0.58" stop-color="#eef3fa"/>
      <stop offset="1" stop-color="#d9e1ec"/>
    </linearGradient>
    <linearGradient id="titleMist" x1="0" y1="0" x2="0" y2="1">
      <stop offset="0" stop-color="#46505a" stop-opacity="0"/>
      <stop offset="0.26" stop-color="#46505a" stop-opacity="0.28"/>
      <stop offset="0.64" stop-color="#46505a" stop-opacity="0.20"/>
      <stop offset="1" stop-color="#46505a" stop-opacity="0"/>
    </linearGradient>
    <linearGradient id="startMist" x1="0" y1="0" x2="0" y2="1">
      <stop offset="0" stop-color="#46505a" stop-opacity="0"/>
      <stop offset="0.46" stop-color="#46505a" stop-opacity="0.32"/>
      <stop offset="1" stop-color="#46505a" stop-opacity="0"/>
    </linearGradient>
    <filter id="mistBlur" x="-8%" y="-30%" width="116%" height="160%">
      <feGaussianBlur stdDeviation="18"/>
    </filter>  </defs>
  <g id="start-layer-long-screen-v2" transform="translate(0 240)">
<g id="start-layer">`n    <rect x="-40" y="1630" width="1160" height="210" fill="url(#startMist)" filter="url(#mistBlur)"/>
    <line x1="388" y1="1749" x2="468" y2="1749" stroke="#a0784c" stroke-width="2" opacity="0.72"/>
    <line x1="612" y1="1749" x2="692" y2="1749" stroke="#a0784c" stroke-width="2" opacity="0.72"/>
    <path d="M 5.797 44.707 C 6.161 46.311 6.654 47.578 7.273 48.508 C 7.893 49.438 8.695 50.126 9.68 50.572 C 10.664 51.019 11.931 51.242 13.48 51.242 C 15.613 51.242 17.249 50.686 18.389 49.574 C 19.528 48.462 20.098 46.84 20.098 44.707 C 20.098 43.34 19.861 42.191 19.387 41.262 C 18.913 40.332 18.138 39.457 17.063 38.637 C 15.987 37.816 14.346 36.859 12.141 35.766 C 10.008 34.708 8.322 33.674 7.082 32.662 C 5.842 31.65 4.917 30.552 4.307 29.367 C 3.696 28.182 3.391 26.888 3.391 25.484 C 3.391 23.443 3.869 21.67 4.826 20.166 C 5.783 18.662 7.187 17.5 9.037 16.68 C 10.887 15.859 13.007 15.449 15.395 15.449 C 16.78 15.449 18.133 15.522 19.455 15.668 C 20.777 15.814 22.431 16.142 24.418 16.652 L 24.418 24.035 L 21.711 24.035 C 21.292 22.431 20.763 21.182 20.125 20.289 C 19.487 19.396 18.74 18.771 17.883 18.416 C 17.026 18.061 15.914 17.883 14.547 17.883 C 13.362 17.883 12.3 18.102 11.361 18.539 C 10.423 18.977 9.68 19.637 9.133 20.521 C 8.586 21.406 8.313 22.458 8.313 23.68 C 8.313 24.974 8.545 26.068 9.01 26.961 C 9.475 27.854 10.199 28.684 11.184 29.449 C 12.168 30.215 13.626 31.072 15.559 32.02 C 17.892 33.186 19.701 34.271 20.986 35.273 C 22.271 36.276 23.274 37.42 23.994 38.705 C 24.714 39.99 25.074 41.49 25.074 43.203 C 25.074 45.117 24.773 46.735 24.172 48.057 C 23.57 49.378 22.736 50.454 21.67 51.283 C 20.604 52.113 19.327 52.714 17.842 53.088 C 16.356 53.462 14.729 53.648 12.961 53.648 C 10.099 53.648 6.799 53.165 3.063 52.199 L 3.063 44.707 Z M 41.918 15.887 L 71.504 15.887 L 71.504 25.402 L 68.824 25.402 C 68.423 23.835 68.027 22.595 67.635 21.684 C 67.243 20.772 66.828 20.079 66.391 19.605 C 65.953 19.132 65.484 18.794 64.982 18.594 C 64.481 18.393 63.729 18.293 62.727 18.293 L 59.254 18.293 L 59.254 46.293 C 59.254 47.368 59.313 48.225 59.432 48.863 C 59.55 49.501 59.732 50.007 59.979 50.381 C 60.225 50.755 60.557 51.046 60.977 51.256 C 61.396 51.465 62.052 51.671 62.945 51.871 L 62.945 53.211 L 50.449 53.211 L 50.449 51.871 C 50.996 51.743 51.479 51.607 51.898 51.461 C 52.318 51.315 52.66 51.137 52.924 50.928 C 53.188 50.718 53.407 50.449 53.58 50.121 C 53.753 49.793 53.89 49.346 53.99 48.781 C 54.09 48.216 54.141 47.387 54.141 46.293 L 54.141 18.293 L 50.695 18.293 C 49.839 18.293 49.132 18.375 48.576 18.539 C 48.02 18.703 47.505 19.045 47.031 19.564 C 46.557 20.084 46.124 20.822 45.732 21.779 C 45.34 22.736 44.971 23.944 44.625 25.402 L 41.918 25.402 Z M 107.406 53.211 L 107.406 51.871 C 108.318 51.689 108.997 51.488 109.443 51.27 C 109.89 51.051 110.223 50.745 110.441 50.354 C 110.66 49.962 110.77 49.438 110.77 48.781 C 110.77 48.161 110.697 47.492 110.551 46.771 C 110.405 46.051 110.195 45.245 109.922 44.352 L 108.91 40.824 L 96.168 40.824 L 95.238 43.504 C 94.764 44.853 94.454 45.874 94.309 46.566 C 94.163 47.259 94.09 47.888 94.09 48.453 C 94.09 49.547 94.368 50.349 94.924 50.859 C 95.48 51.37 96.332 51.707 97.48 51.871 L 97.48 53.211 L 85.805 53.211 L 85.805 51.871 C 86.826 51.707 87.714 51.115 88.471 50.094 C 89.227 49.073 89.961 47.615 90.672 45.719 L 102.074 15.449 L 106.395 15.449 L 115.691 45.938 C 116.129 47.359 116.516 48.444 116.854 49.191 C 117.191 49.939 117.596 50.522 118.07 50.941 C 118.544 51.361 119.191 51.671 120.012 51.871 L 120.012 53.211 Z M 96.906 38.445 L 108.336 38.445 L 103.141 20.809 Z M 144.512 36.996 L 144.512 46.293 C 144.512 47.605 144.562 48.558 144.662 49.15 C 144.762 49.743 144.913 50.189 145.113 50.49 C 145.314 50.791 145.587 51.037 145.934 51.229 C 146.28 51.42 146.872 51.634 147.711 51.871 L 147.711 53.211 L 136.172 53.211 L 136.172 51.871 C 137.302 51.579 138.059 51.256 138.441 50.9 C 138.824 50.545 139.075 50.039 139.193 49.383 C 139.312 48.727 139.371 47.724 139.371 46.375 L 139.371 22.723 C 139.371 21.465 139.326 20.549 139.234 19.975 C 139.143 19.4 138.993 18.954 138.783 18.635 C 138.574 18.316 138.296 18.061 137.949 17.869 C 137.603 17.678 137.01 17.464 136.172 17.227 L 136.172 15.887 L 149.707 15.887 C 153.973 15.887 157.163 16.661 159.277 18.211 C 161.392 19.76 162.449 22.167 162.449 25.43 C 162.449 27.927 161.761 30.051 160.385 31.801 C 159.009 33.551 156.944 34.918 154.191 35.902 L 154.191 36.121 C 155.303 36.577 156.256 37.229 157.049 38.076 C 157.842 38.924 158.721 40.241 159.688 42.027 L 162.148 46.512 C 162.859 47.824 163.47 48.827 163.981 49.52 C 164.491 50.212 165.01 50.741 165.539 51.105 C 166.068 51.47 166.77 51.725 167.645 51.871 L 167.645 53.211 L 160.07 53.211 C 159.378 52.245 158.721 51.206 158.102 50.094 C 157.482 48.982 156.871 47.852 156.27 46.703 L 153.863 42.137 C 153.134 40.751 152.537 39.73 152.072 39.074 C 151.607 38.418 151.179 37.958 150.787 37.693 C 150.395 37.429 149.976 37.247 149.529 37.146 C 149.083 37.046 148.413 36.996 147.52 36.996 M 144.512 18.402 L 144.512 34.645 L 147.602 34.645 C 149.188 34.645 150.473 34.531 151.457 34.303 C 152.441 34.075 153.353 33.642 154.191 33.004 C 155.03 32.366 155.7 31.477 156.201 30.338 C 156.703 29.199 156.953 27.799 156.953 26.141 C 156.953 24.409 156.657 22.969 156.065 21.82 C 155.472 20.672 154.574 19.797 153.371 19.195 C 152.168 18.594 150.546 18.293 148.504 18.293 C 146.863 18.293 145.533 18.329 144.512 18.402 M 181.781 15.887 L 211.367 15.887 L 211.367 25.402 L 208.688 25.402 C 208.287 23.835 207.89 22.595 207.498 21.684 C 207.106 20.772 206.691 20.079 206.254 19.605 C 205.816 19.132 205.347 18.794 204.846 18.594 C 204.344 18.393 203.592 18.293 202.59 18.293 L 199.117 18.293 L 199.117 46.293 C 199.117 47.368 199.176 48.225 199.295 48.863 C 199.413 49.501 199.596 50.007 199.842 50.381 C 200.088 50.755 200.421 51.046 200.84 51.256 C 201.259 51.465 201.915 51.671 202.809 51.871 L 202.809 53.211 L 190.313 53.211 L 190.313 51.871 C 190.859 51.743 191.342 51.607 191.762 51.461 C 192.181 51.315 192.523 51.137 192.787 50.928 C 193.051 50.718 193.27 50.449 193.443 50.121 C 193.617 49.793 193.753 49.346 193.854 48.781 C 193.954 48.216 194.004 47.387 194.004 46.293 L 194.004 18.293 L 190.559 18.293 C 189.702 18.293 188.995 18.375 188.44 18.539 C 187.884 18.703 187.369 19.045 186.895 19.564 C 186.421 20.084 185.988 20.822 185.596 21.779 C 185.204 22.736 184.835 23.944 184.488 25.402 L 181.781 25.402 Z" transform="translate(388.437 1696.16) scale(1.413641)" fill="#fafafc" filter="url(#smallShadow)"/>
    <path d="M 0.773 6.809 L 13.453 6.809 L 13.453 10.887 L 12.305 10.887 C 12.133 10.215 11.963 9.684 11.795 9.293 C 11.627 8.902 11.449 8.605 11.262 8.402 C 11.074 8.199 10.873 8.055 10.658 7.969 C 10.443 7.883 10.121 7.84 9.691 7.84 L 8.203 7.84 L 8.203 19.84 C 8.203 20.301 8.229 20.668 8.279 20.941 C 8.33 21.215 8.408 21.432 8.514 21.592 C 8.619 21.752 8.762 21.877 8.941 21.967 C 9.121 22.057 9.402 22.145 9.785 22.23 L 9.785 22.805 L 4.43 22.805 L 4.43 22.23 C 4.664 22.176 4.871 22.117 5.051 22.055 C 5.23 21.992 5.377 21.916 5.49 21.826 C 5.604 21.736 5.697 21.621 5.771 21.48 C 5.846 21.34 5.904 21.148 5.947 20.906 C 5.99 20.664 6.012 20.309 6.012 19.84 L 6.012 7.84 L 4.535 7.84 C 4.168 7.84 3.865 7.875 3.627 7.945 C 3.389 8.016 3.168 8.162 2.965 8.385 C 2.762 8.607 2.576 8.924 2.408 9.334 C 2.24 9.744 2.082 10.262 1.934 10.887 L 0.773 10.887 Z M 20.262 21.129 L 20.086 21.082 C 19.406 21.777 18.768 22.27 18.17 22.559 C 17.572 22.848 16.938 22.992 16.266 22.992 C 15.672 22.992 15.148 22.877 14.695 22.646 C 14.242 22.416 13.895 22.092 13.652 21.674 C 13.41 21.256 13.289 20.773 13.289 20.227 C 13.289 19.086 13.854 18.205 14.982 17.584 C 16.111 16.963 17.805 16.602 20.063 16.5 L 20.063 15.738 C 20.063 14.926 19.984 14.285 19.828 13.816 C 19.672 13.348 19.426 13.004 19.09 12.785 C 18.754 12.566 18.305 12.457 17.742 12.457 C 17.133 12.457 16.643 12.617 16.271 12.938 C 15.9 13.258 15.621 13.738 15.434 14.379 L 13.898 14.379 L 13.898 12.855 C 14.648 12.465 15.273 12.178 15.773 11.994 C 16.273 11.811 16.773 11.666 17.273 11.561 C 17.773 11.455 18.281 11.402 18.797 11.402 C 19.57 11.402 20.191 11.525 20.66 11.771 C 21.129 12.018 21.48 12.395 21.715 12.902 C 21.949 13.41 22.066 14.176 22.066 15.199 L 22.066 19.277 C 22.066 19.855 22.07 20.264 22.078 20.502 C 22.086 20.74 22.109 20.961 22.148 21.164 C 22.188 21.367 22.246 21.529 22.324 21.65 C 22.402 21.771 22.518 21.875 22.67 21.961 C 22.822 22.047 23.07 22.137 23.414 22.23 L 23.414 22.805 L 20.203 22.805 Z M 20.063 17.461 C 18.477 17.477 17.289 17.688 16.5 18.094 C 15.711 18.5 15.316 19.113 15.316 19.934 C 15.316 20.379 15.406 20.73 15.586 20.988 C 15.766 21.246 15.992 21.424 16.266 21.521 C 16.539 21.619 16.863 21.668 17.238 21.668 C 17.77 21.668 18.252 21.539 18.686 21.281 C 19.119 21.023 19.457 20.695 19.699 20.297 C 19.941 19.898 20.063 19.504 20.063 19.113 M 28.383 22.453 L 28.383 24.926 C 28.383 25.434 28.4 25.813 28.436 26.063 C 28.471 26.313 28.533 26.51 28.623 26.654 C 28.713 26.799 28.842 26.918 29.01 27.012 C 29.178 27.105 29.449 27.191 29.824 27.27 L 29.824 27.844 L 25.043 27.844 L 25.043 27.27 C 25.324 27.191 25.553 27.111 25.729 27.029 C 25.904 26.947 26.039 26.826 26.133 26.666 C 26.227 26.506 26.289 26.289 26.32 26.016 C 26.352 25.742 26.367 25.379 26.367 24.926 L 26.367 14.871 C 26.367 14.309 26.359 13.908 26.344 13.67 C 26.328 13.432 26.297 13.234 26.25 13.078 C 26.203 12.922 26.135 12.793 26.045 12.691 C 25.955 12.59 25.834 12.504 25.682 12.434 C 25.529 12.363 25.277 12.293 24.926 12.223 L 24.926 11.602 L 27.68 11.496 L 28.395 11.496 L 28.242 13.406 L 28.418 13.453 C 28.902 12.961 29.285 12.604 29.566 12.381 C 29.848 12.158 30.139 11.973 30.439 11.824 C 30.74 11.676 31.029 11.57 31.307 11.508 C 31.584 11.445 31.879 11.414 32.191 11.414 C 33.48 11.414 34.471 11.896 35.162 12.861 C 35.854 13.826 36.199 15.238 36.199 17.098 C 36.199 18.387 36.004 19.471 35.613 20.35 C 35.223 21.229 34.654 21.889 33.908 22.33 C 33.162 22.771 32.273 22.992 31.242 22.992 C 30.664 22.992 30.141 22.943 29.672 22.846 C 29.203 22.748 28.773 22.617 28.383 22.453 M 28.383 18.586 C 28.383 19.336 28.43 19.914 28.523 20.32 C 28.617 20.727 28.783 21.057 29.021 21.311 C 29.26 21.564 29.541 21.754 29.865 21.879 C 30.189 22.004 30.617 22.066 31.148 22.066 C 32.094 22.066 32.805 21.674 33.281 20.889 C 33.758 20.104 33.996 18.945 33.996 17.414 C 33.996 14.352 33.102 12.82 31.313 12.82 C 30.875 12.82 30.498 12.889 30.182 13.025 C 29.865 13.162 29.551 13.383 29.238 13.688 C 28.926 13.992 28.705 14.287 28.576 14.572 C 28.447 14.857 28.383 15.164 28.383 15.492 M 43.137 12.188 C 43.527 12.125 43.844 12.016 44.086 11.859 C 44.328 11.703 44.518 11.502 44.654 11.256 C 44.791 11.01 44.898 10.701 44.977 10.33 C 45.055 9.959 45.137 9.418 45.223 8.707 L 46.887 8.707 L 46.887 11.602 L 50.672 11.602 L 50.672 12.785 L 46.887 12.785 L 46.887 18 C 46.887 18.758 46.918 19.361 46.98 19.811 C 47.043 20.26 47.16 20.611 47.332 20.865 C 47.504 21.119 47.699 21.301 47.918 21.41 C 48.137 21.52 48.418 21.574 48.762 21.574 C 49.074 21.574 49.367 21.51 49.641 21.381 C 49.914 21.252 50.184 21.066 50.449 20.824 L 50.977 21.457 C 50.422 21.996 49.896 22.387 49.4 22.629 C 48.904 22.871 48.391 22.992 47.859 22.992 C 46.852 22.992 46.102 22.693 45.609 22.096 C 45.117 21.498 44.871 20.563 44.871 19.289 L 44.871 12.785 L 43.137 12.785 Z M 56.848 22.992 C 55.223 22.992 53.982 22.514 53.127 21.557 C 52.271 20.6 51.844 19.184 51.844 17.309 C 51.844 16.02 52.068 14.93 52.518 14.039 C 52.967 13.148 53.582 12.486 54.363 12.053 C 55.145 11.619 56.035 11.402 57.035 11.402 C 58.707 11.402 59.973 11.889 60.832 12.861 C 61.691 13.834 62.121 15.23 62.121 17.051 C 62.121 18.348 61.906 19.441 61.477 20.332 C 61.047 21.223 60.438 21.889 59.648 22.33 C 58.859 22.771 57.926 22.992 56.848 22.992 M 54.059 17.063 C 54.059 18.672 54.314 19.908 54.826 20.771 C 55.338 21.635 56.07 22.066 57.023 22.066 C 57.547 22.066 57.992 21.939 58.359 21.686 C 58.727 21.432 59.025 21.09 59.256 20.66 C 59.486 20.23 59.652 19.732 59.754 19.166 C 59.855 18.6 59.906 18.008 59.906 17.391 C 59.906 16.242 59.779 15.289 59.525 14.531 C 59.271 13.773 58.926 13.217 58.488 12.861 C 58.051 12.506 57.551 12.328 56.988 12.328 C 56.043 12.328 55.318 12.738 54.814 13.559 C 54.311 14.379 54.059 15.547 54.059 17.063 M 77.625 14.168 L 76.5 14.168 C 76.328 13.699 76.125 13.33 75.891 13.061 C 75.656 12.791 75.391 12.602 75.094 12.492 C 74.797 12.383 74.434 12.328 74.004 12.328 C 73.379 12.328 72.881 12.475 72.51 12.768 C 72.139 13.061 71.953 13.461 71.953 13.969 C 71.953 14.328 72.027 14.625 72.176 14.859 C 72.324 15.094 72.555 15.313 72.867 15.516 C 73.18 15.719 73.73 15.988 74.52 16.324 C 75.316 16.668 75.932 16.984 76.365 17.273 C 76.799 17.563 77.139 17.898 77.385 18.281 C 77.631 18.664 77.754 19.121 77.754 19.652 C 77.754 20.27 77.648 20.789 77.438 21.211 C 77.227 21.633 76.93 21.977 76.547 22.242 C 76.164 22.508 75.709 22.699 75.182 22.816 C 74.654 22.934 74.078 22.992 73.453 22.992 C 72.797 22.992 72.16 22.943 71.543 22.846 C 70.926 22.748 70.324 22.621 69.738 22.465 L 69.738 20.016 L 70.887 20.016 C 71.098 20.734 71.41 21.256 71.824 21.58 C 72.238 21.904 72.809 22.066 73.535 22.066 C 73.816 22.066 74.092 22.037 74.361 21.979 C 74.631 21.92 74.871 21.822 75.082 21.686 C 75.293 21.549 75.461 21.363 75.586 21.129 C 75.711 20.895 75.773 20.602 75.773 20.25 C 75.773 19.852 75.695 19.527 75.539 19.277 C 75.383 19.027 75.141 18.799 74.813 18.592 C 74.484 18.385 73.906 18.105 73.078 17.754 C 72.367 17.457 71.797 17.168 71.367 16.887 C 70.937 16.605 70.6 16.273 70.354 15.891 C 70.107 15.508 69.984 15.055 69.984 14.531 C 69.984 13.891 70.158 13.334 70.506 12.861 C 70.854 12.389 71.355 12.027 72.012 11.777 C 72.668 11.527 73.437 11.402 74.32 11.402 C 74.836 11.402 75.334 11.428 75.814 11.479 C 76.295 11.529 76.898 11.629 77.625 11.777 M 79.383 12.188 C 79.773 12.125 80.09 12.016 80.332 11.859 C 80.574 11.703 80.764 11.502 80.9 11.256 C 81.037 11.01 81.145 10.701 81.223 10.33 C 81.301 9.959 81.383 9.418 81.469 8.707 L 83.133 8.707 L 83.133 11.602 L 86.918 11.602 L 86.918 12.785 L 83.133 12.785 L 83.133 18 C 83.133 18.758 83.164 19.361 83.227 19.811 C 83.289 20.26 83.406 20.611 83.578 20.865 C 83.75 21.119 83.945 21.301 84.164 21.41 C 84.383 21.52 84.664 21.574 85.008 21.574 C 85.32 21.574 85.613 21.51 85.887 21.381 C 86.16 21.252 86.43 21.066 86.695 20.824 L 87.223 21.457 C 86.668 21.996 86.143 22.387 85.646 22.629 C 85.15 22.871 84.637 22.992 84.105 22.992 C 83.098 22.992 82.348 22.693 81.855 22.096 C 81.363 21.498 81.117 20.563 81.117 19.289 L 81.117 12.785 L 79.383 12.785 Z M 94.98 21.129 L 94.805 21.082 C 94.125 21.777 93.486 22.27 92.889 22.559 C 92.291 22.848 91.656 22.992 90.984 22.992 C 90.391 22.992 89.867 22.877 89.414 22.646 C 88.961 22.416 88.613 22.092 88.371 21.674 C 88.129 21.256 88.008 20.773 88.008 20.227 C 88.008 19.086 88.572 18.205 89.701 17.584 C 90.83 16.963 92.523 16.602 94.781 16.5 L 94.781 15.738 C 94.781 14.926 94.703 14.285 94.547 13.816 C 94.391 13.348 94.145 13.004 93.809 12.785 C 93.473 12.566 93.023 12.457 92.461 12.457 C 91.852 12.457 91.361 12.617 90.99 12.938 C 90.619 13.258 90.34 13.738 90.152 14.379 L 88.617 14.379 L 88.617 12.855 C 89.367 12.465 89.992 12.178 90.492 11.994 C 90.992 11.811 91.492 11.666 91.992 11.561 C 92.492 11.455 93 11.402 93.516 11.402 C 94.289 11.402 94.91 11.525 95.379 11.771 C 95.848 12.018 96.199 12.395 96.434 12.902 C 96.668 13.41 96.785 14.176 96.785 15.199 L 96.785 19.277 C 96.785 19.855 96.789 20.264 96.797 20.502 C 96.805 20.74 96.828 20.961 96.867 21.164 C 96.906 21.367 96.965 21.529 97.043 21.65 C 97.121 21.771 97.236 21.875 97.389 21.961 C 97.541 22.047 97.789 22.137 98.133 22.23 L 98.133 22.805 L 94.922 22.805 Z M 94.781 17.461 C 93.195 17.477 92.008 17.688 91.219 18.094 C 90.43 18.5 90.035 19.113 90.035 19.934 C 90.035 20.379 90.125 20.73 90.305 20.988 C 90.484 21.246 90.711 21.424 90.984 21.521 C 91.258 21.619 91.582 21.668 91.957 21.668 C 92.488 21.668 92.971 21.539 93.404 21.281 C 93.838 21.023 94.176 20.695 94.418 20.297 C 94.66 19.898 94.781 19.504 94.781 19.113 M 103.09 13.547 L 103.254 13.582 C 103.684 13.059 104.082 12.646 104.449 12.346 C 104.816 12.045 105.213 11.813 105.639 11.648 C 106.064 11.484 106.547 11.402 107.086 11.402 C 107.539 11.402 107.949 11.426 108.316 11.473 L 108.316 14.168 L 106.992 14.168 C 106.805 13.746 106.606 13.439 106.395 13.248 C 106.184 13.057 105.895 12.961 105.527 12.961 C 105.246 12.961 104.967 13.043 104.69 13.207 C 104.412 13.371 104.145 13.609 103.887 13.922 C 103.629 14.234 103.451 14.527 103.354 14.801 C 103.256 15.074 103.207 15.398 103.207 15.773 L 103.207 19.875 C 103.207 20.586 103.25 21.076 103.336 21.346 C 103.422 21.615 103.564 21.813 103.764 21.938 C 103.963 22.063 104.262 22.16 104.66 22.23 L 104.66 22.805 L 99.938 22.805 L 99.938 22.23 C 100.234 22.137 100.447 22.055 100.576 21.984 C 100.705 21.914 100.816 21.816 100.91 21.691 C 101.004 21.566 101.074 21.375 101.121 21.117 C 101.168 20.859 101.191 20.457 101.191 19.91 L 101.191 14.801 C 101.191 14.301 101.184 13.898 101.168 13.594 C 101.152 13.289 101.098 13.045 101.004 12.861 C 100.91 12.678 100.768 12.541 100.576 12.451 C 100.385 12.361 100.113 12.285 99.762 12.223 L 99.762 11.613 L 102.504 11.496 L 103.219 11.496 Z M 109.148 12.188 C 109.539 12.125 109.856 12.016 110.098 11.859 C 110.34 11.703 110.529 11.502 110.666 11.256 C 110.803 11.01 110.91 10.701 110.988 10.33 C 111.066 9.959 111.148 9.418 111.234 8.707 L 112.898 8.707 L 112.898 11.602 L 116.684 11.602 L 116.684 12.785 L 112.898 12.785 L 112.898 18 C 112.898 18.758 112.93 19.361 112.992 19.811 C 113.055 20.26 113.172 20.611 113.344 20.865 C 113.516 21.119 113.711 21.301 113.93 21.41 C 114.148 21.52 114.43 21.574 114.773 21.574 C 115.086 21.574 115.379 21.51 115.652 21.381 C 115.926 21.252 116.195 21.066 116.461 20.824 L 116.988 21.457 C 116.434 21.996 115.908 22.387 115.412 22.629 C 114.916 22.871 114.402 22.992 113.871 22.992 C 112.863 22.992 112.113 22.693 111.621 22.096 C 111.129 21.498 110.883 20.563 110.883 19.289 L 110.883 12.785 L 109.148 12.785 Z" transform="translate(458.824 1777.613) scale(1.378644)" fill="#ffffff" opacity="0.92" filter="url(#smallShadow)"/>
  </g>
  </g>
</svg>
