<svg xmlns="http://www.w3.org/2000/svg" width="1080" height="1920" viewBox="0 0 1080 1920">
  <defs>
    <filter id="softShadow" x="-20%" y="-25%" width="145%" height="160%">
      <feDropShadow dx="4" dy="5" stdDeviation="1.8" flood-color="#101722" flood-opacity="0.96"/>
    </filter>
    <filter id="smallShadow" x="-20%" y="-25%" width="145%" height="160%">
      <feDropShadow dx="2" dy="2" stdDeviation="1.2" flood-color="#101722" flood-opacity="0.82"/>
    </filter>
    <linearGradient id="titleSilver" x1="0" y1="82" x2="0" y2="274" gradientUnits="userSpaceOnUse">
      <stop offset="0" stop-color="#ffffff"/>
      <stop offset="0.58" stop-color="#eef3fa"/>
      <stop offset="1" stop-color="#d9e1ec"/>
    </linearGradient>
  </defs>
  <g id="title-layer">
    <path d="M 29.987 13.075 C 30.917 13.583 31.645 14.256 32.17 15.093 C 32.695 15.931 32.957 16.908 32.957 18.025 C 32.957 19.564 32.652 20.918 32.042 22.085 C 31.432 23.253 30.636 24.234 29.653 25.029 C 28.654 25.841 27.523 26.514 26.261 27.047 C 24.999 27.58 23.724 27.973 22.437 28.227 L 22.437 28.452 C 23.419 28.571 24.436 28.804 25.486 29.151 C 26.537 29.498 27.486 29.96 28.333 30.535 C 29.231 31.128 29.964 31.894 30.531 32.834 C 31.099 33.774 31.383 34.888 31.383 36.175 C 31.383 38.089 30.938 39.779 30.048 41.244 C 29.159 42.708 28.036 43.898 26.681 44.813 C 25.224 45.795 23.661 46.519 21.992 46.985 C 20.323 47.451 18.607 47.684 16.845 47.684 L -0.762 47.684 L -0.355 46.008 C 0.051 45.974 0.66 45.902 1.473 45.792 C 2.285 45.682 2.869 45.551 3.225 45.398 C 3.817 45.161 4.27 44.836 4.583 44.421 C 4.896 44.006 5.12 43.503 5.256 42.91 L 11.301 16.758 C 11.335 16.589 11.364 16.424 11.39 16.263 C 11.415 16.102 11.428 15.937 11.428 15.768 C 11.428 15.412 11.356 15.103 11.212 14.841 C 11.068 14.578 10.818 14.354 10.463 14.168 C 9.972 13.897 9.452 13.698 8.901 13.571 C 8.351 13.444 7.839 13.364 7.365 13.33 L 7.772 11.654 L 23.665 11.654 C 24.867 11.654 25.988 11.76 27.029 11.971 C 28.07 12.183 29.056 12.551 29.987 13.075 M 24.601 24.781 C 25.397 23.85 25.969 22.864 26.317 21.823 C 26.664 20.782 26.838 19.602 26.838 18.281 C 26.838 17.384 26.677 16.622 26.354 15.996 C 26.032 15.37 25.59 14.87 25.03 14.498 C 24.47 14.143 23.851 13.893 23.172 13.749 C 22.493 13.605 21.78 13.533 21.033 13.533 C 20.473 13.533 19.849 13.546 19.162 13.571 C 18.474 13.597 17.893 13.618 17.418 13.635 L 14.204 27.65 L 17.381 27.65 C 19.042 27.65 20.478 27.388 21.69 26.863 C 22.902 26.339 23.872 25.645 24.601 24.781 M 22.948 42.194 C 23.678 41.193 24.229 40.1 24.602 38.913 C 24.976 37.726 25.162 36.557 25.162 35.404 C 25.162 33.59 24.551 32.165 23.329 31.131 C 22.108 30.097 20.394 29.58 18.188 29.58 C 17.119 29.58 16.203 29.593 15.439 29.618 C 14.676 29.644 14.099 29.665 13.708 29.682 L 10.835 42.11 C 10.784 42.352 10.746 42.575 10.721 42.778 C 10.695 42.982 10.683 43.177 10.683 43.363 C 10.683 44.245 11.132 44.881 12.031 45.27 C 12.93 45.66 14.075 45.855 15.466 45.855 C 17.18 45.855 18.669 45.504 19.933 44.8 C 21.196 44.097 22.202 43.228 22.948 42.194 M 49.259 8.76 L 42.16 39.33 C 42.007 39.973 41.862 40.617 41.727 41.26 C 41.591 41.903 41.523 42.428 41.523 42.834 C 41.523 43.799 41.739 44.459 42.17 44.814 C 42.601 45.17 43.298 45.348 44.261 45.348 C 44.599 45.348 45.101 45.305 45.769 45.221 C 46.437 45.136 46.939 45.035 47.277 44.916 L 46.896 46.541 C 45.373 47.15 44.201 47.582 43.38 47.836 C 42.559 48.09 41.632 48.217 40.6 48.217 C 39.245 48.217 38.217 47.865 37.515 47.162 C 36.812 46.459 36.461 45.591 36.461 44.558 C 36.461 44.169 36.499 43.762 36.575 43.339 C 36.651 42.915 36.757 42.382 36.893 41.738 L 43.081 14.984 C 43.2 14.458 43.28 14.094 43.322 13.891 C 43.365 13.688 43.386 13.433 43.386 13.129 C 43.386 12.519 43.284 12.049 43.08 11.719 C 42.876 11.388 42.587 11.138 42.213 10.969 C 41.856 10.817 41.405 10.715 40.861 10.664 C 40.317 10.613 39.764 10.554 39.203 10.486 L 39.559 8.938 L 49.004 8.379 Z M 66.78 44.129 L 66.627 44.129 C 65.848 44.755 65.104 45.331 64.393 45.855 C 63.682 46.38 62.979 46.82 62.285 47.176 C 61.472 47.582 60.736 47.874 60.076 48.052 C 59.415 48.229 58.552 48.318 57.485 48.318 C 55.86 48.318 54.599 47.849 53.701 46.909 C 52.804 45.97 52.355 44.738 52.355 43.215 C 52.355 42.809 52.389 42.326 52.457 41.768 C 52.525 41.209 52.685 40.38 52.938 39.279 L 54.91 31.23 C 55.079 30.486 55.218 29.826 55.328 29.25 C 55.438 28.674 55.493 28.124 55.493 27.6 C 55.493 26.652 55.337 26.021 55.024 25.708 C 54.711 25.395 54.074 25.238 53.111 25.238 C 52.74 25.238 52.267 25.309 51.692 25.451 C 51.118 25.593 50.67 25.708 50.35 25.797 L 50.73 24.16 C 52.051 23.563 53.215 23.111 54.222 22.804 C 55.229 22.497 56.037 22.344 56.646 22.344 C 58.001 22.344 58.995 22.661 59.63 23.296 C 60.265 23.931 60.582 24.832 60.582 26 C 60.582 26.305 60.548 26.719 60.48 27.244 C 60.413 27.769 60.311 28.294 60.176 28.818 L 57.934 38.213 C 57.766 38.924 57.627 39.588 57.517 40.206 C 57.407 40.824 57.352 41.294 57.352 41.615 C 57.352 42.749 57.598 43.646 58.088 44.307 C 58.578 44.967 59.356 45.297 60.422 45.297 C 61.504 45.297 62.616 45.013 63.757 44.446 C 64.899 43.879 66.044 43.02 67.194 41.869 L 71.615 22.75 L 76.044 22.445 L 76.35 22.826 L 72.574 39.178 C 72.405 39.872 72.253 40.57 72.118 41.272 C 71.983 41.975 71.915 42.47 71.915 42.758 C 71.915 43.723 72.122 44.379 72.536 44.726 C 72.95 45.073 73.639 45.246 74.602 45.246 C 74.923 45.246 75.379 45.195 75.971 45.094 C 76.562 44.992 77.019 44.882 77.34 44.764 L 76.959 46.389 C 75.554 46.964 74.382 47.396 73.443 47.684 C 72.504 47.971 71.637 48.115 70.841 48.115 C 69.471 48.115 68.451 47.717 67.782 46.922 C 67.114 46.126 66.78 45.195 66.78 44.129 M 102.248 27.329 C 102.248 29.126 101.685 30.669 100.56 31.958 C 99.434 33.247 97.796 34.272 95.646 35.035 C 94.072 35.612 92.481 36.078 90.873 36.434 C 89.265 36.79 87.488 37.087 85.541 37.324 C 85.541 39.999 86.036 42.043 87.026 43.456 C 88.017 44.869 89.468 45.576 91.381 45.576 C 93.074 45.576 94.567 45.153 95.862 44.307 C 97.157 43.46 98.431 42.199 99.684 40.523 L 101.131 41.59 C 99.777 43.655 98.084 45.305 96.053 46.541 C 94.021 47.777 91.914 48.395 89.73 48.395 C 86.734 48.395 84.445 47.556 82.862 45.878 C 81.28 44.201 80.488 41.821 80.488 38.737 C 80.488 36.602 80.823 34.565 81.491 32.625 C 82.16 30.685 83.137 28.91 84.424 27.3 C 85.676 25.724 87.213 24.453 89.032 23.488 C 90.852 22.522 92.862 22.039 95.063 22.039 C 97.5 22.039 99.307 22.535 100.483 23.527 C 101.66 24.519 102.248 25.786 102.248 27.329 M 97.576 26.705 C 97.576 26.046 97.483 25.527 97.297 25.147 C 97.111 24.767 96.874 24.484 96.586 24.298 C 96.281 24.095 95.96 23.968 95.621 23.918 C 95.283 23.867 94.936 23.842 94.58 23.842 C 92.549 23.842 90.674 24.957 88.956 27.186 C 87.238 29.416 86.15 32.194 85.693 35.521 C 86.878 35.352 88.215 35.112 89.705 34.799 C 91.195 34.487 92.43 34.078 93.412 33.571 C 94.817 32.844 95.862 31.911 96.548 30.771 C 97.233 29.631 97.576 28.275 97.576 26.705 M 146.555 36.969 L 143.327 47.684 L 115.147 47.684 L 115.527 46.008 C 115.951 45.974 116.551 45.915 117.33 45.83 C 118.109 45.745 118.676 45.635 119.031 45.5 C 119.641 45.263 120.102 44.92 120.415 44.472 C 120.728 44.023 120.944 43.503 121.063 42.91 L 127.085 16.859 C 127.119 16.707 127.148 16.55 127.174 16.39 C 127.199 16.229 127.212 16.072 127.212 15.92 C 127.212 15.581 127.14 15.272 126.996 14.993 C 126.852 14.714 126.594 14.473 126.222 14.27 C 125.883 14.066 125.388 13.872 124.736 13.686 C 124.085 13.499 123.53 13.381 123.073 13.33 L 123.454 11.654 L 138.658 11.654 L 138.277 13.33 C 137.888 13.347 137.325 13.419 136.589 13.546 C 135.853 13.673 135.205 13.821 134.647 13.99 C 133.986 14.21 133.504 14.566 133.199 15.057 C 132.895 15.548 132.675 16.062 132.539 16.6 L 126.912 41.053 C 126.777 41.648 126.671 42.17 126.595 42.618 C 126.519 43.067 126.481 43.435 126.481 43.723 C 126.481 44.654 126.858 45.238 127.611 45.475 C 128.365 45.712 129.742 45.83 131.741 45.83 C 132.859 45.83 134.134 45.733 135.565 45.538 C 136.997 45.343 137.992 44.992 138.551 44.484 C 139.415 43.723 140.504 42.542 141.817 40.942 C 143.13 39.343 144.108 38.018 144.752 36.969 M 173.418 32.027 C 173.418 34.026 173.079 36.026 172.402 38.025 C 171.725 40.024 170.744 41.778 169.457 43.286 C 168.154 44.845 166.584 46.094 164.747 47.035 C 162.911 47.975 160.782 48.445 158.361 48.445 C 155.551 48.445 153.271 47.539 151.519 45.726 C 149.767 43.913 148.891 41.473 148.891 38.406 C 148.891 36.153 149.263 34.052 150.008 32.103 C 150.753 30.155 151.751 28.444 153.004 26.97 C 154.273 25.496 155.843 24.305 157.714 23.399 C 159.584 22.492 161.611 22.039 163.795 22.039 C 166.808 22.039 169.165 22.958 170.866 24.797 C 172.567 26.635 173.418 29.045 173.418 32.027 M 168.238 31.061 C 168.238 28.654 167.811 26.85 166.956 25.647 C 166.101 24.443 164.87 23.842 163.262 23.842 C 161.857 23.842 160.532 24.274 159.288 25.138 C 158.044 26.002 156.973 27.409 156.076 29.358 C 155.382 30.832 154.874 32.472 154.553 34.276 C 154.231 36.081 154.07 37.746 154.07 39.271 C 154.07 41.694 154.489 43.529 155.327 44.774 C 156.165 46.02 157.43 46.643 159.123 46.643 C 160.63 46.643 161.967 46.168 163.135 45.219 C 164.303 44.27 165.251 43.067 165.979 41.61 C 166.706 40.186 167.265 38.555 167.654 36.716 C 168.044 34.878 168.238 32.992 168.238 31.061 M 186.418 48.395 C 183.456 48.395 181.116 47.53 179.398 45.802 C 177.679 44.074 176.82 41.617 176.82 38.432 C 176.82 36.314 177.146 34.285 177.798 32.345 C 178.45 30.405 179.359 28.681 180.527 27.173 C 181.695 25.665 183.172 24.432 184.958 23.475 C 186.744 22.518 188.729 22.039 190.912 22.039 C 193.333 22.039 195.174 22.551 196.435 23.575 C 197.696 24.599 198.326 25.89 198.326 27.447 C 198.326 28.615 198.051 29.639 197.501 30.52 C 196.951 31.4 196.126 31.84 195.025 31.84 C 194.111 31.84 193.426 31.612 192.969 31.156 C 192.512 30.701 192.283 30.195 192.283 29.638 C 192.283 29.098 192.466 28.36 192.832 27.423 C 193.198 26.487 193.489 25.732 193.705 25.158 C 193.519 24.702 193.104 24.369 192.461 24.158 C 191.818 23.947 191.149 23.842 190.455 23.842 C 188.153 23.842 186.168 25.183 184.501 27.866 C 182.834 30.549 182 33.837 182 37.73 C 182 40.134 182.538 42.043 183.615 43.456 C 184.692 44.869 186.145 45.576 187.977 45.576 C 189.621 45.576 191.084 45.136 192.364 44.256 C 193.644 43.376 194.869 42.132 196.039 40.523 L 197.488 41.59 C 196.32 43.435 194.733 45.03 192.728 46.376 C 190.722 47.722 188.619 48.395 186.418 48.395 M 225.9 24.959 C 225.9 25.704 225.608 26.394 225.023 27.028 C 224.438 27.663 223.714 27.98 222.85 27.98 C 222.29 27.98 221.739 27.904 221.197 27.752 C 220.654 27.6 220.061 27.371 219.417 27.066 C 218.487 27.591 217.527 28.239 216.538 29.009 C 215.549 29.779 214.47 30.711 213.303 31.806 C 214.269 34.313 215.086 36.367 215.755 37.968 C 216.424 39.568 216.996 40.877 217.47 41.893 C 218.08 43.164 218.753 44.065 219.489 44.599 C 220.226 45.132 221.034 45.398 221.914 45.398 C 222.32 45.398 222.879 45.338 223.59 45.216 C 224.301 45.095 224.851 44.969 225.24 44.84 L 224.859 46.503 C 223.283 47.141 222.045 47.569 221.147 47.788 C 220.249 48.006 219.342 48.115 218.427 48.115 C 217.342 48.115 216.414 47.815 215.643 47.214 C 214.872 46.613 214.132 45.526 213.423 43.952 C 212.73 42.445 212.114 40.96 211.573 39.496 C 211.033 38.032 210.501 36.649 209.978 35.346 L 207.047 37.823 L 204.846 47.684 L 200.104 47.684 L 207.662 14.984 C 207.781 14.459 207.861 14.095 207.904 13.891 C 207.946 13.688 207.967 13.434 207.967 13.129 C 207.967 12.519 207.865 12.049 207.662 11.719 C 207.458 11.388 207.169 11.138 206.795 10.969 C 206.438 10.817 205.988 10.715 205.443 10.664 C 204.899 10.613 204.346 10.554 203.785 10.486 L 204.142 8.938 L 213.59 8.379 L 213.844 8.76 L 207.63 35.191 L 207.732 35.191 C 209.643 33.126 211.381 31.336 212.946 29.821 C 214.511 28.306 216.148 26.762 217.856 25.188 C 219.075 24.07 220.039 23.304 220.749 22.89 C 221.46 22.475 222.221 22.268 223.033 22.268 C 223.896 22.268 224.589 22.509 225.114 22.991 C 225.638 23.474 225.9 24.13 225.9 24.959 M 241.693 26.013 C 241.693 26.957 241.351 27.767 240.665 28.441 C 239.98 29.116 239.163 29.453 238.215 29.453 C 237.267 29.453 236.45 29.116 235.765 28.441 C 235.079 27.767 234.736 26.957 234.736 26.013 C 234.736 25.068 235.075 24.254 235.752 23.571 C 236.429 22.888 237.25 22.547 238.215 22.547 C 239.18 22.547 240.001 22.888 240.678 23.571 C 241.355 24.254 241.693 25.068 241.693 26.013 M 237.504 44.764 C 237.504 45.712 237.161 46.52 236.476 47.188 C 235.79 47.857 234.973 48.191 234.025 48.191 C 233.078 48.191 232.261 47.857 231.575 47.188 C 230.89 46.52 230.547 45.712 230.547 44.764 C 230.547 43.816 230.89 42.999 231.575 42.313 C 232.261 41.628 233.078 41.285 234.025 41.285 C 234.973 41.285 235.79 41.628 236.476 42.313 C 237.161 42.999 237.504 43.816 237.504 44.764" transform="translate(88 94) scale(0.92)" fill="#ffffff" opacity="0.94" filter="url(#smallShadow)"/>
    <line x1="384" y1="137" x2="500" y2="137" stroke="#b18a58" stroke-width="2" opacity="0.72"/>
    <line x1="580" y1="137" x2="696" y2="137" stroke="#b18a58" stroke-width="2" opacity="0.72"/>
    <rect x="532" y="128" width="16" height="16" fill="none" stroke="#b18a58" stroke-width="2" opacity="0.72"/>
    <path d="M 40.723 39.375 C 42.52 42.578 44.561 46.143 46.846 50.068 C 49.131 53.994 51.563 58.135 54.141 62.49 C 56.719 66.846 59.404 71.348 62.197 75.996 C 64.99 80.645 67.822 85.313 70.693 90 C 73.564 94.688 76.406 99.316 79.219 103.887 C 82.031 108.457 84.756 112.842 87.393 117.041 C 90.029 121.24 92.529 125.176 94.893 128.848 C 97.256 132.52 99.395 135.801 101.309 138.691 C 101.309 128.223 101.328 118.691 101.367 110.098 C 101.406 101.504 101.484 93.75 101.602 86.836 C 101.719 79.922 101.856 73.779 102.012 68.408 C 102.168 63.037 102.373 58.33 102.627 54.287 C 102.881 50.244 103.174 46.807 103.506 43.975 C 103.838 41.143 104.219 38.809 104.648 36.973 C 105 35.41 105.498 34.111 106.143 33.076 C 106.787 32.041 107.529 31.211 108.369 30.586 C 109.209 29.961 110.127 29.521 111.123 29.268 C 112.119 29.014 113.164 28.887 114.258 28.887 C 116.875 28.887 119.59 29.453 122.402 30.586 L 122.402 31.172 C 120.488 33.867 118.838 37.383 117.451 41.719 C 116.064 46.055 114.883 50.869 113.906 56.162 C 112.93 61.455 112.139 67.031 111.533 72.891 C 110.928 78.75 110.449 84.561 110.098 90.322 C 109.746 96.084 109.482 101.621 109.307 106.934 C 109.131 112.246 108.984 116.992 108.867 121.172 C 108.789 124.844 108.711 128.428 108.633 131.924 C 108.555 135.42 108.486 138.916 108.428 142.412 C 108.369 145.908 108.32 149.443 108.281 153.018 C 108.242 156.592 108.223 160.273 108.223 164.063 L 101.074 165 L 100.02 164.883 C 98.848 163.242 97.354 161.045 95.537 158.291 C 93.721 155.537 91.68 152.383 89.414 148.828 C 87.148 145.273 84.697 141.387 82.061 137.168 C 79.424 132.949 76.689 128.555 73.857 123.984 C 71.025 119.414 68.145 114.746 65.215 109.981 C 62.285 105.215 59.385 100.488 56.514 95.801 C 53.643 91.113 50.85 86.543 48.135 82.09 C 45.42 77.637 42.871 73.447 40.488 69.521 C 38.105 65.596 35.938 62.012 33.984 58.77 C 32.031 55.527 30.371 52.773 29.004 50.508 C 28.926 59.141 28.799 67.549 28.623 75.732 C 28.447 83.916 28.223 91.777 27.949 99.316 C 27.676 106.856 27.373 114.014 27.041 120.791 C 26.709 127.568 26.348 133.867 25.957 139.688 C 25.684 143.789 25.4 147.285 25.107 150.176 C 24.814 153.066 24.463 155.479 24.053 157.412 C 23.643 159.346 23.135 160.879 22.529 162.012 C 21.924 163.145 21.172 163.994 20.273 164.561 C 19.375 165.127 18.301 165.488 17.051 165.645 C 15.801 165.801 14.316 165.879 12.598 165.879 L 11.016 165.879 C 10.703 165.879 10.313 165.869 9.844 165.85 C 9.375 165.83 8.77 165.801 8.027 165.762 L 7.207 165.176 C 8.887 161.387 10.381 157.148 11.689 152.461 C 12.998 147.773 14.141 142.803 15.117 137.549 C 16.094 132.295 16.943 126.865 17.666 121.26 C 18.389 115.654 18.984 110.039 19.453 104.414 C 19.922 98.789 20.303 93.252 20.596 87.803 C 20.889 82.354 21.113 77.168 21.27 72.246 C 21.426 67.324 21.523 62.754 21.563 58.535 C 21.602 54.316 21.621 50.645 21.621 47.52 C 21.621 45.84 21.494 44.404 21.24 43.213 C 20.986 42.021 20.518 41.045 19.834 40.283 C 19.15 39.521 18.223 38.965 17.051 38.613 C 15.879 38.262 14.355 38.086 12.48 38.086 C 11.152 38.086 9.658 38.164 7.998 38.32 C 6.338 38.477 4.453 38.711 2.344 39.023 L 1.699 33.867 C 4.98 33.125 7.949 32.461 10.605 31.875 C 13.262 31.289 15.664 30.801 17.813 30.41 C 19.961 30.02 21.904 29.717 23.643 29.502 C 25.381 29.287 26.953 29.18 28.359 29.18 C 29.805 29.18 31.064 29.355 32.139 29.707 C 33.213 30.059 34.209 30.625 35.127 31.406 C 36.045 32.188 36.943 33.232 37.822 34.541 C 38.701 35.85 39.668 37.461 40.723 39.375 M 181.231 103.828 C 181.231 100.742 180.723 98.066 179.707 95.801 C 178.691 93.535 177.363 91.68 175.723 90.234 C 174.082 88.789 172.227 87.715 170.156 87.012 C 168.086 86.309 166.016 85.957 163.945 85.957 C 161.172 85.957 158.828 86.25 156.914 86.836 C 155 87.422 153.447 88.223 152.256 89.238 C 151.064 90.254 150.205 91.455 149.678 92.842 C 149.15 94.229 148.887 95.723 148.887 97.324 C 148.887 99.199 149.229 101.084 149.912 102.979 C 150.596 104.873 151.602 106.719 152.93 108.516 L 152.695 109.16 C 150.469 110.254 148.223 110.801 145.957 110.801 C 144.629 110.801 143.389 110.596 142.236 110.186 C 141.084 109.775 140.088 109.18 139.248 108.398 C 138.408 107.617 137.744 106.66 137.256 105.527 C 136.768 104.395 136.523 103.125 136.523 101.719 C 136.523 99.414 137.08 97.246 138.193 95.215 C 139.307 93.184 140.781 91.328 142.617 89.648 C 144.453 87.969 146.582 86.465 149.004 85.137 C 151.426 83.809 153.926 82.686 156.504 81.768 C 159.082 80.85 161.67 80.146 164.268 79.658 C 166.865 79.17 169.277 78.926 171.504 78.926 C 175.606 78.926 179.111 79.473 182.022 80.566 C 184.932 81.66 187.295 83.252 189.111 85.342 C 190.928 87.432 192.256 89.961 193.096 92.93 C 193.936 95.898 194.356 99.258 194.356 103.008 C 194.356 105.586 194.248 108.418 194.033 111.504 C 193.818 114.59 193.574 117.822 193.301 121.201 C 193.027 124.58 192.783 128.066 192.568 131.66 C 192.354 135.254 192.246 138.828 192.246 142.383 C 192.246 148.008 193.291 152.236 195.381 155.068 C 197.471 157.9 200.215 159.316 203.613 159.316 C 206.621 159.316 209.981 158.203 213.691 155.977 L 215.391 158.496 C 212.773 161.113 209.922 163.106 206.836 164.473 C 203.75 165.84 200.508 166.523 197.109 166.523 C 194.57 166.523 192.227 166.094 190.078 165.234 C 187.93 164.375 186.074 163.096 184.512 161.397 C 182.949 159.697 181.738 157.559 180.879 154.981 C 180.02 152.402 179.59 149.414 179.59 146.016 C 179.59 145 179.619 143.984 179.678 142.969 C 179.736 141.953 179.863 140.879 180.059 139.746 L 179.707 139.746 C 178.027 143.106 176.084 146.416 173.877 149.678 C 171.67 152.94 169.248 155.85 166.611 158.408 C 163.975 160.967 161.162 163.037 158.174 164.619 C 155.186 166.201 152.051 166.992 148.77 166.992 C 146.074 166.992 143.613 166.523 141.387 165.586 C 139.16 164.648 137.256 163.359 135.674 161.719 C 134.092 160.078 132.861 158.135 131.982 155.889 C 131.104 153.643 130.664 151.191 130.664 148.535 C 130.664 145.098 131.299 141.973 132.568 139.16 C 133.838 136.348 135.596 133.828 137.842 131.602 C 140.088 129.375 142.773 127.451 145.898 125.83 C 149.023 124.209 152.422 122.861 156.094 121.787 C 159.766 120.713 163.652 119.912 167.754 119.385 C 171.856 118.857 176.035 118.594 180.293 118.594 C 180.566 116.133 180.791 113.75 180.967 111.445 C 181.143 109.141 181.231 106.602 181.231 103.828 M 145.254 144.082 C 145.254 145.606 145.42 147.061 145.752 148.447 C 146.084 149.834 146.611 151.055 147.334 152.109 C 148.057 153.164 148.975 153.994 150.088 154.6 C 151.201 155.205 152.539 155.508 154.102 155.508 C 155.859 155.508 157.676 155.098 159.551 154.277 C 161.426 153.457 163.272 152.324 165.088 150.879 C 166.904 149.434 168.643 147.705 170.303 145.693 C 171.963 143.682 173.457 141.484 174.785 139.102 C 176.113 136.719 177.217 134.209 178.096 131.572 C 178.975 128.936 179.551 126.231 179.824 123.457 C 176.934 123.535 174.063 123.721 171.211 124.014 C 168.359 124.307 165.654 124.766 163.096 125.391 C 160.537 126.016 158.164 126.836 155.977 127.852 C 153.789 128.867 151.904 130.127 150.322 131.631 C 148.74 133.135 147.5 134.912 146.602 136.963 C 145.703 139.014 145.254 141.387 145.254 144.082 M 281.133 90.996 C 283.125 93.848 284.512 96.719 285.293 99.609 C 286.074 102.5 286.465 105.43 286.465 108.398 C 286.465 111.484 286.045 114.502 285.205 117.451 C 284.365 120.4 283.174 123.193 281.631 125.83 C 280.088 128.467 278.232 130.889 276.065 133.096 C 273.897 135.303 271.484 137.217 268.828 138.838 C 266.172 140.459 263.32 141.719 260.273 142.617 C 257.227 143.516 254.043 143.965 250.723 143.965 C 249.863 143.965 249.014 143.926 248.174 143.848 C 247.334 143.77 246.465 143.672 245.566 143.555 C 244.199 143.828 242.949 144.238 241.816 144.785 C 240.684 145.332 239.688 145.977 238.828 146.719 C 237.969 147.461 237.305 148.252 236.836 149.092 C 236.367 149.932 236.133 150.781 236.133 151.641 C 236.133 153.359 236.807 154.824 238.154 156.035 C 239.502 157.246 241.309 158.301 243.574 159.199 C 245.84 160.098 248.467 160.889 251.455 161.572 C 254.443 162.256 257.559 162.949 260.801 163.652 C 263.731 164.277 266.621 164.922 269.473 165.586 C 272.324 166.25 275.039 167.012 277.617 167.871 C 280.195 168.731 282.578 169.736 284.766 170.889 C 286.953 172.041 288.848 173.389 290.449 174.932 C 292.051 176.475 293.301 178.272 294.199 180.322 C 295.098 182.373 295.547 184.746 295.547 187.441 C 295.547 190.84 294.932 194.111 293.701 197.256 C 292.471 200.4 290.742 203.34 288.516 206.074 C 286.289 208.809 283.633 211.309 280.547 213.574 C 277.461 215.84 274.063 217.783 270.352 219.404 C 266.641 221.025 262.686 222.275 258.486 223.154 C 254.287 224.033 249.961 224.473 245.508 224.473 C 242.93 224.473 240.215 224.287 237.363 223.916 C 234.512 223.545 231.699 222.959 228.926 222.158 C 226.152 221.357 223.506 220.322 220.986 219.053 C 218.467 217.783 216.24 216.25 214.307 214.453 C 212.373 212.656 210.84 210.586 209.707 208.242 C 208.574 205.898 208.008 203.223 208.008 200.215 C 208.008 197.715 208.418 195.313 209.238 193.008 C 210.059 190.703 211.162 188.555 212.549 186.563 C 213.936 184.57 215.547 182.715 217.383 180.996 C 219.219 179.277 221.162 177.734 223.213 176.367 C 225.264 175 227.354 173.818 229.482 172.822 C 231.611 171.826 233.672 171.035 235.664 170.449 L 235.781 170.156 C 234.336 169.531 232.92 168.818 231.533 168.018 C 230.147 167.217 228.897 166.27 227.783 165.176 C 226.67 164.082 225.772 162.842 225.088 161.455 C 224.404 160.068 224.063 158.496 224.063 156.738 C 224.063 154.746 224.522 152.959 225.44 151.377 C 226.357 149.795 227.52 148.389 228.926 147.158 C 230.332 145.928 231.875 144.863 233.555 143.965 C 235.234 143.066 236.856 142.285 238.418 141.621 C 235.41 140.449 232.725 138.945 230.361 137.109 C 227.998 135.273 226.006 133.184 224.385 130.84 C 222.764 128.496 221.523 125.947 220.664 123.193 C 219.805 120.44 219.375 117.559 219.375 114.551 C 219.375 109.434 220.371 104.697 222.363 100.342 C 224.356 95.986 227.041 92.227 230.42 89.063 C 233.799 85.898 237.715 83.418 242.168 81.621 C 246.621 79.824 251.309 78.926 256.231 78.926 C 258.106 78.926 259.824 79.063 261.387 79.336 C 262.949 79.609 264.395 79.951 265.723 80.361 C 267.051 80.771 268.272 81.221 269.385 81.709 C 270.498 82.197 271.543 82.676 272.52 83.145 C 274.004 83.887 275.459 84.541 276.885 85.107 C 278.311 85.674 279.961 85.957 281.836 85.957 C 283.398 85.957 284.902 85.703 286.348 85.195 C 287.793 84.688 289.063 83.955 290.156 82.998 C 291.25 82.041 292.119 80.869 292.764 79.482 C 293.408 78.096 293.731 76.523 293.731 74.766 C 293.731 74.492 293.721 74.238 293.701 74.004 C 293.682 73.77 293.652 73.496 293.613 73.184 L 294.375 72.656 C 297.07 73.906 299.072 75.459 300.381 77.314 C 301.689 79.17 302.344 81.035 302.344 82.91 C 302.344 84.395 302.051 85.713 301.465 86.865 C 300.879 88.018 300.049 89.004 298.975 89.824 C 297.9 90.645 296.621 91.27 295.137 91.699 C 293.652 92.129 292.012 92.344 290.215 92.344 C 287.48 92.344 284.531 91.797 281.367 90.703 M 242.578 172.91 C 239.805 173.652 237.178 174.727 234.697 176.133 C 232.217 177.539 230.02 179.248 228.106 181.26 C 226.191 183.272 224.678 185.566 223.565 188.145 C 222.451 190.723 221.895 193.535 221.895 196.582 C 221.895 200.332 222.725 203.564 224.385 206.279 C 226.045 208.994 228.193 211.25 230.83 213.047 C 233.467 214.844 236.406 216.172 239.648 217.031 C 242.891 217.891 246.094 218.32 249.258 218.32 C 253.555 218.32 257.656 217.666 261.563 216.357 C 265.469 215.049 268.897 213.232 271.846 210.908 C 274.795 208.584 277.139 205.84 278.877 202.676 C 280.615 199.512 281.484 196.055 281.484 192.305 C 281.484 190.195 281.055 188.389 280.195 186.885 C 279.336 185.381 278.154 184.072 276.65 182.959 C 275.147 181.846 273.359 180.898 271.289 180.117 C 269.219 179.336 266.953 178.613 264.492 177.949 C 261.172 177.051 257.666 176.231 253.975 175.488 C 250.283 174.746 246.484 173.887 242.578 172.91 M 254.648 137.461 C 256.758 137.461 258.662 137.1 260.361 136.377 C 262.061 135.654 263.574 134.688 264.902 133.477 C 266.23 132.266 267.363 130.85 268.301 129.229 C 269.238 127.607 270.01 125.908 270.615 124.131 C 271.221 122.354 271.67 120.537 271.963 118.682 C 272.256 116.826 272.402 115.039 272.402 113.32 C 272.402 111.172 272.217 108.994 271.846 106.787 C 271.475 104.58 270.918 102.441 270.176 100.371 C 269.434 98.301 268.486 96.367 267.334 94.57 C 266.182 92.773 264.844 91.201 263.32 89.854 C 261.797 88.506 260.059 87.441 258.106 86.66 C 256.152 85.879 253.984 85.488 251.602 85.488 C 249.375 85.488 247.373 85.84 245.596 86.543 C 243.818 87.246 242.246 88.203 240.879 89.414 C 239.512 90.625 238.35 92.021 237.393 93.604 C 236.436 95.186 235.654 96.865 235.049 98.643 C 234.443 100.42 233.994 102.227 233.701 104.063 C 233.408 105.898 233.262 107.656 233.262 109.336 C 233.262 111.484 233.457 113.682 233.848 115.928 C 234.238 118.174 234.824 120.332 235.606 122.402 C 236.387 124.473 237.373 126.426 238.565 128.262 C 239.756 130.098 241.143 131.699 242.725 133.066 C 244.307 134.434 246.094 135.508 248.086 136.289 C 250.078 137.07 252.266 137.461 254.648 137.461 M 326.133 55.137 C 324.766 55.137 323.555 54.854 322.5 54.287 C 321.445 53.721 320.547 52.979 319.805 52.061 C 319.063 51.143 318.496 50.088 318.106 48.896 C 317.715 47.705 317.52 46.484 317.52 45.234 C 317.52 43.477 317.813 41.924 318.398 40.576 C 318.984 39.229 319.746 38.096 320.684 37.178 C 321.621 36.26 322.656 35.576 323.789 35.127 C 324.922 34.678 326.035 34.453 327.129 34.453 C 328.457 34.453 329.648 34.697 330.703 35.186 C 331.758 35.674 332.666 36.348 333.428 37.207 C 334.19 38.066 334.775 39.053 335.186 40.166 C 335.596 41.279 335.801 42.48 335.801 43.77 C 335.801 45.137 335.566 46.494 335.098 47.842 C 334.629 49.189 333.975 50.41 333.135 51.504 C 332.295 52.598 331.279 53.477 330.088 54.141 C 328.897 54.805 327.578 55.137 326.133 55.137 M 331.231 81.621 C 330.566 86.074 330 90.537 329.531 95.01 C 329.063 99.482 328.682 103.809 328.389 107.988 C 328.096 112.168 327.881 116.123 327.744 119.854 C 327.607 123.584 327.539 126.953 327.539 129.961 C 327.539 134.023 327.598 137.51 327.715 140.42 C 327.832 143.33 328.027 145.781 328.301 147.773 C 328.574 149.766 328.916 151.357 329.326 152.549 C 329.736 153.74 330.244 154.658 330.85 155.303 C 331.455 155.947 332.158 156.367 332.959 156.563 C 333.76 156.758 334.668 156.856 335.684 156.856 C 337.559 156.856 339.58 156.572 341.748 156.006 C 343.916 155.44 346.113 154.648 348.34 153.633 L 349.453 156.68 C 348.047 157.813 346.279 158.965 344.15 160.137 C 342.022 161.309 339.785 162.383 337.441 163.359 C 335.098 164.336 332.803 165.127 330.557 165.732 C 328.311 166.338 326.367 166.641 324.727 166.641 C 323.633 166.641 322.637 166.553 321.738 166.377 C 320.84 166.201 320.029 165.762 319.307 165.059 C 318.584 164.356 317.939 163.32 317.373 161.953 C 316.807 160.586 316.338 158.731 315.967 156.387 C 315.596 154.043 315.313 151.113 315.117 147.598 C 314.922 144.082 314.824 139.824 314.824 134.824 C 314.824 131.895 314.854 128.584 314.912 124.893 C 314.971 121.201 315.059 117.236 315.176 112.998 C 315.293 108.76 315.449 104.287 315.645 99.58 C 315.84 94.873 316.094 90.02 316.406 85.02 C 316.484 83.926 316.777 83.037 317.285 82.354 C 317.793 81.67 318.418 81.143 319.16 80.771 C 319.902 80.4 320.693 80.146 321.533 80.01 C 322.373 79.873 323.145 79.805 323.848 79.805 C 326.465 79.805 328.926 80.41 331.231 81.621 M 361.816 76.055 L 361.641 27.07 C 361.641 26.445 361.855 25.898 362.285 25.43 C 362.715 24.961 363.252 24.58 363.897 24.287 C 364.541 23.994 365.264 23.77 366.065 23.613 C 366.865 23.457 367.656 23.379 368.438 23.379 C 369.57 23.379 370.742 23.486 371.953 23.701 C 373.164 23.916 374.414 24.277 375.703 24.785 C 373.945 33.262 372.412 41.68 371.104 50.039 C 369.795 58.398 368.691 66.934 367.793 75.645 L 362.754 76.113 Z M 391.523 142.91 C 391.797 145.879 392.588 148.438 393.897 150.586 C 395.205 152.734 396.816 154.492 398.731 155.859 C 400.645 157.227 402.764 158.242 405.088 158.906 C 407.412 159.57 409.727 159.902 412.031 159.902 C 414.18 159.902 416.25 159.609 418.242 159.023 C 420.234 158.438 421.992 157.598 423.516 156.504 C 425.039 155.41 426.26 154.063 427.178 152.461 C 428.096 150.859 428.555 149.063 428.555 147.07 C 428.555 145 428.066 143.184 427.09 141.621 C 426.113 140.059 424.805 138.633 423.164 137.344 C 421.523 136.055 419.619 134.863 417.451 133.77 C 415.283 132.676 413.027 131.563 410.684 130.43 C 408.613 129.453 406.533 128.467 404.443 127.471 C 402.354 126.475 400.332 125.391 398.379 124.219 C 396.426 123.047 394.6 121.777 392.9 120.41 C 391.201 119.043 389.717 117.529 388.447 115.869 C 387.178 114.209 386.182 112.354 385.459 110.303 C 384.736 108.252 384.375 105.977 384.375 103.477 C 384.375 100.781 384.844 98.301 385.781 96.035 C 386.719 93.77 387.998 91.729 389.619 89.912 C 391.24 88.096 393.115 86.504 395.244 85.137 C 397.373 83.77 399.648 82.627 402.07 81.709 C 404.492 80.791 406.982 80.107 409.541 79.658 C 412.1 79.209 414.59 78.984 417.012 78.984 C 420.137 78.984 423.096 79.326 425.889 80.01 C 428.682 80.693 431.123 81.689 433.213 82.998 C 435.303 84.307 436.963 85.898 438.193 87.773 C 439.424 89.648 440.039 91.758 440.039 94.102 C 440.039 95 439.883 95.977 439.57 97.031 C 439.258 98.086 438.73 99.072 437.988 99.99 C 437.246 100.908 436.27 101.68 435.059 102.305 C 433.848 102.93 432.363 103.262 430.606 103.301 C 428.965 103.301 427.246 103.047 425.449 102.539 L 425.273 101.953 C 425.82 100.703 426.211 99.551 426.445 98.496 C 426.68 97.441 426.797 96.465 426.797 95.566 C 426.758 93.77 426.299 92.256 425.42 91.025 C 424.541 89.795 423.438 88.789 422.109 88.008 C 420.781 87.227 419.307 86.66 417.686 86.309 C 416.064 85.957 414.473 85.781 412.91 85.781 C 410.137 85.781 407.656 86.152 405.469 86.895 C 403.281 87.637 401.436 88.623 399.932 89.854 C 398.428 91.084 397.275 92.48 396.475 94.043 C 395.674 95.605 395.273 97.227 395.273 98.906 C 395.273 101.055 395.84 102.979 396.973 104.678 C 398.105 106.377 399.609 107.94 401.484 109.365 C 403.359 110.791 405.518 112.129 407.959 113.379 C 410.4 114.629 412.949 115.879 415.606 117.129 C 418.574 118.535 421.523 119.99 424.453 121.494 C 427.383 122.998 430 124.707 432.305 126.621 C 434.609 128.535 436.475 130.732 437.9 133.213 C 439.326 135.693 440.039 138.613 440.039 141.973 C 440.039 145.996 439.15 149.57 437.373 152.695 C 435.596 155.82 433.223 158.457 430.254 160.606 C 427.285 162.754 423.877 164.385 420.029 165.498 C 416.182 166.611 412.188 167.168 408.047 167.168 C 405.977 167.168 403.838 167.012 401.631 166.699 C 399.424 166.387 397.285 165.918 395.215 165.293 C 393.145 164.668 391.182 163.897 389.326 162.979 C 387.471 162.061 385.85 161.006 384.463 159.815 C 383.076 158.623 381.982 157.295 381.182 155.83 C 380.381 154.365 379.981 152.754 379.981 150.996 C 379.981 149.473 380.303 148.184 380.947 147.129 C 381.592 146.074 382.441 145.215 383.496 144.551 C 384.551 143.887 385.732 143.389 387.041 143.057 C 388.35 142.725 389.688 142.539 391.055 142.5 M 524.297 45.059 C 524.297 46.699 524.258 48.799 524.18 51.357 C 524.102 53.916 524.004 57.051 523.887 60.762 C 523.77 64.473 523.633 68.799 523.477 73.74 C 523.32 78.682 523.164 84.336 523.008 90.703 C 528.633 90.508 534.043 90.342 539.238 90.205 C 544.434 90.068 549.561 89.951 554.619 89.854 C 559.678 89.756 564.746 89.678 569.824 89.619 C 574.902 89.561 580.137 89.512 585.527 89.473 C 585.645 85.488 585.771 81.504 585.908 77.52 C 586.045 73.535 586.211 69.336 586.406 64.922 C 586.602 60.508 586.846 55.762 587.139 50.684 C 587.432 45.605 587.793 39.98 588.223 33.809 C 588.262 32.949 588.525 32.217 589.014 31.611 C 589.502 31.006 590.127 30.498 590.889 30.088 C 591.65 29.678 592.5 29.375 593.438 29.18 C 594.375 28.984 595.313 28.887 596.25 28.887 C 597.383 28.887 598.604 29.033 599.912 29.326 C 601.221 29.619 602.5 30.039 603.75 30.586 C 603.164 36.992 602.646 43.125 602.197 48.984 C 601.748 54.844 601.367 60.547 601.055 66.094 C 600.742 71.641 600.469 77.119 600.234 82.529 C 600 87.939 599.824 93.398 599.707 98.906 C 599.59 104.414 599.502 110.039 599.443 115.781 C 599.385 121.523 599.355 127.52 599.356 133.77 C 599.355 137.91 599.531 141.445 599.883 144.375 C 600.234 147.305 600.85 149.697 601.729 151.553 C 602.607 153.408 603.789 154.766 605.273 155.625 C 606.758 156.484 608.613 156.914 610.84 156.914 C 612.441 156.914 614.102 156.787 615.82 156.533 C 617.539 156.279 619.668 155.684 622.207 154.746 L 623.848 159.551 C 621.035 160.762 618.418 161.816 615.996 162.715 C 613.574 163.613 611.318 164.356 609.229 164.941 C 607.139 165.527 605.195 165.967 603.398 166.26 C 601.602 166.553 599.883 166.699 598.242 166.699 C 596.016 166.699 594.062 166.279 592.383 165.44 C 590.703 164.6 589.307 163.223 588.193 161.309 C 587.08 159.395 586.25 156.875 585.703 153.75 C 585.156 150.625 584.883 146.758 584.883 142.148 L 584.883 128.848 C 584.883 125.762 584.893 122.822 584.912 120.029 C 584.932 117.236 584.961 114.531 585 111.914 C 585.039 109.297 585.078 106.758 585.117 104.297 C 585.156 101.836 585.215 99.395 585.293 96.973 C 579.902 96.973 574.678 96.992 569.619 97.031 C 564.561 97.07 559.502 97.148 554.443 97.266 C 549.385 97.383 544.248 97.539 539.033 97.734 C 533.818 97.93 528.398 98.164 522.773 98.438 L 520.781 164.063 L 506.895 165.82 L 505.84 165.703 C 506.309 154.492 506.729 143.838 507.1 133.74 C 507.471 123.643 507.793 113.828 508.066 104.297 C 508.34 94.766 508.545 85.371 508.682 76.113 C 508.818 66.855 508.887 57.461 508.887 47.93 C 508.887 46.094 508.76 44.521 508.506 43.213 C 508.252 41.904 507.773 40.84 507.07 40.02 C 506.367 39.199 505.4 38.604 504.17 38.232 C 502.94 37.861 501.367 37.676 499.453 37.676 C 496.875 37.676 493.574 37.969 489.551 38.555 L 488.965 33.691 C 494.629 32.246 499.434 31.162 503.379 30.439 C 507.324 29.717 510.625 29.355 513.281 29.355 C 515.898 29.355 517.949 29.697 519.434 30.381 C 520.918 31.064 522.021 32.08 522.744 33.428 C 523.467 34.775 523.906 36.426 524.063 38.379 C 524.219 40.332 524.297 42.559 524.297 45.059 M 686.426 145.898 C 686.66 146.016 686.963 146.182 687.334 146.397 C 687.705 146.611 688.047 146.846 688.359 147.1 C 688.672 147.354 688.945 147.627 689.18 147.92 C 689.414 148.213 689.531 148.496 689.531 148.77 C 689.531 148.926 689.473 149.082 689.356 149.238 C 687.168 152.285 684.815 154.932 682.295 157.178 C 679.775 159.424 677.158 161.299 674.443 162.803 C 671.729 164.307 668.965 165.42 666.152 166.143 C 663.34 166.865 660.566 167.227 657.832 167.227 C 653.145 167.227 648.848 166.27 644.941 164.356 C 641.035 162.441 637.676 159.824 634.863 156.504 C 632.051 153.184 629.854 149.287 628.272 144.815 C 626.69 140.342 625.898 135.547 625.898 130.43 C 625.898 126.25 626.357 122.07 627.275 117.891 C 628.193 113.711 629.522 109.727 631.26 105.938 C 632.998 102.148 635.117 98.623 637.617 95.361 C 640.117 92.1 642.959 89.268 646.143 86.865 C 649.326 84.463 652.822 82.578 656.631 81.211 C 660.44 79.844 664.531 79.16 668.906 79.16 C 671.797 79.16 674.551 79.551 677.168 80.332 C 679.785 81.113 682.08 82.236 684.053 83.701 C 686.025 85.166 687.598 86.973 688.77 89.121 C 689.941 91.27 690.527 93.711 690.527 96.445 C 690.527 100.43 689.229 103.906 686.631 106.875 C 684.033 109.844 680.449 112.363 675.879 114.434 C 671.309 116.504 665.928 118.174 659.736 119.443 C 653.545 120.713 646.855 121.66 639.668 122.285 L 639.668 123.281 C 639.668 128.281 640.303 132.852 641.572 136.992 C 642.842 141.133 644.59 144.678 646.816 147.627 C 649.043 150.576 651.66 152.871 654.668 154.512 C 657.676 156.152 660.918 156.973 664.395 156.973 C 667.91 156.973 671.514 156.104 675.205 154.365 C 678.897 152.627 682.637 149.805 686.426 145.898 M 675.41 98.848 C 675.41 97.051 675.107 95.371 674.502 93.809 C 673.896 92.246 673.057 90.889 671.982 89.736 C 670.908 88.584 669.629 87.676 668.145 87.012 C 666.66 86.348 665.059 86.016 663.34 86.016 C 660.801 86.016 658.496 86.465 656.426 87.363 C 654.355 88.262 652.5 89.482 650.859 91.025 C 649.219 92.568 647.773 94.365 646.523 96.416 C 645.273 98.467 644.209 100.645 643.33 102.949 C 642.451 105.254 641.738 107.617 641.191 110.039 C 640.645 112.461 640.254 114.824 640.02 117.129 C 645.566 116.738 650.537 116.065 654.932 115.107 C 659.326 114.15 663.037 112.92 666.065 111.416 C 669.092 109.912 671.406 108.115 673.008 106.025 C 674.609 103.936 675.41 101.543 675.41 98.848 M 749.941 103.828 C 749.941 100.742 749.434 98.066 748.418 95.801 C 747.402 93.535 746.074 91.68 744.434 90.234 C 742.793 88.789 740.937 87.715 738.867 87.012 C 736.797 86.309 734.727 85.957 732.656 85.957 C 729.883 85.957 727.539 86.25 725.625 86.836 C 723.711 87.422 722.158 88.223 720.967 89.238 C 719.775 90.254 718.916 91.455 718.389 92.842 C 717.861 94.229 717.598 95.723 717.598 97.324 C 717.598 99.199 717.939 101.084 718.623 102.979 C 719.307 104.873 720.312 106.719 721.641 108.516 L 721.406 109.16 C 719.18 110.254 716.934 110.801 714.668 110.801 C 713.34 110.801 712.1 110.596 710.947 110.186 C 709.795 109.775 708.799 109.18 707.959 108.398 C 707.119 107.617 706.455 106.66 705.967 105.527 C 705.479 104.395 705.234 103.125 705.234 101.719 C 705.234 99.414 705.791 97.246 706.904 95.215 C 708.018 93.184 709.492 91.328 711.328 89.648 C 713.164 87.969 715.293 86.465 717.715 85.137 C 720.137 83.809 722.637 82.686 725.215 81.768 C 727.793 80.85 730.381 80.146 732.979 79.658 C 735.576 79.17 737.988 78.926 740.215 78.926 C 744.316 78.926 747.822 79.473 750.732 80.566 C 753.643 81.66 756.006 83.252 757.822 85.342 C 759.639 87.432 760.967 89.961 761.807 92.93 C 762.646 95.898 763.066 99.258 763.066 103.008 C 763.066 105.586 762.959 108.418 762.744 111.504 C 762.529 114.59 762.285 117.822 762.012 121.201 C 761.738 124.58 761.494 128.066 761.279 131.66 C 761.064 135.254 760.957 138.828 760.957 142.383 C 760.957 148.008 762.002 152.236 764.092 155.068 C 766.182 157.9 768.926 159.316 772.324 159.316 C 775.332 159.316 778.691 158.203 782.402 155.977 L 784.102 158.496 C 781.484 161.113 778.633 163.106 775.547 164.473 C 772.461 165.84 769.219 166.523 765.82 166.523 C 763.281 166.523 760.937 166.094 758.789 165.234 C 756.641 164.375 754.785 163.096 753.223 161.397 C 751.66 159.697 750.449 157.559 749.59 154.981 C 748.73 152.402 748.301 149.414 748.301 146.016 C 748.301 145 748.33 143.984 748.389 142.969 C 748.447 141.953 748.574 140.879 748.77 139.746 L 748.418 139.746 C 746.738 143.106 744.795 146.416 742.588 149.678 C 740.381 152.94 737.959 155.85 735.322 158.408 C 732.686 160.967 729.873 163.037 726.885 164.619 C 723.897 166.201 720.762 166.992 717.481 166.992 C 714.785 166.992 712.324 166.523 710.098 165.586 C 707.871 164.648 705.967 163.359 704.385 161.719 C 702.803 160.078 701.572 158.135 700.693 155.889 C 699.815 153.643 699.375 151.191 699.375 148.535 C 699.375 145.098 700.01 141.973 701.279 139.16 C 702.549 136.348 704.307 133.828 706.553 131.602 C 708.799 129.375 711.484 127.451 714.609 125.83 C 717.734 124.209 721.133 122.861 724.805 121.787 C 728.477 120.713 732.363 119.912 736.465 119.385 C 740.566 118.857 744.746 118.594 749.004 118.594 C 749.277 116.133 749.502 113.75 749.678 111.445 C 749.854 109.141 749.941 106.602 749.941 103.828 M 713.965 144.082 C 713.965 145.606 714.131 147.061 714.463 148.447 C 714.795 149.834 715.322 151.055 716.045 152.109 C 716.768 153.164 717.686 153.994 718.799 154.6 C 719.912 155.205 721.25 155.508 722.813 155.508 C 724.57 155.508 726.387 155.098 728.262 154.277 C 730.137 153.457 731.982 152.324 733.799 150.879 C 735.615 149.434 737.354 147.705 739.014 145.693 C 740.674 143.682 742.168 141.484 743.496 139.102 C 744.824 136.719 745.928 134.209 746.807 131.572 C 747.686 128.936 748.262 126.231 748.535 123.457 C 745.645 123.535 742.773 123.721 739.922 124.014 C 737.07 124.307 734.365 124.766 731.807 125.391 C 729.248 126.016 726.875 126.836 724.688 127.852 C 722.5 128.867 720.615 130.127 719.033 131.631 C 717.451 133.135 716.211 134.912 715.313 136.963 C 714.414 139.014 713.965 141.387 713.965 144.082 M 795.586 165.586 L 794.648 165.527 C 794.961 161.816 795.254 157.773 795.527 153.398 C 795.801 149.023 796.055 144.58 796.289 140.068 C 796.523 135.557 796.729 131.084 796.904 126.65 C 797.08 122.217 797.236 118.076 797.373 114.229 C 797.51 110.381 797.607 106.934 797.666 103.887 C 797.725 100.84 797.754 98.438 797.754 96.68 C 797.754 95.234 797.695 93.984 797.578 92.93 C 797.461 91.875 797.197 90.996 796.787 90.293 C 796.377 89.59 795.781 89.072 795 88.74 C 794.219 88.408 793.164 88.242 791.836 88.242 C 791.172 88.242 790.488 88.281 789.785 88.359 C 789.082 88.438 788.301 88.555 787.441 88.711 C 786.582 88.867 785.615 89.072 784.541 89.326 C 783.467 89.58 782.227 89.883 780.82 90.234 L 779.941 86.016 C 786.426 83.672 791.68 82.021 795.703 81.064 C 799.727 80.107 802.441 79.629 803.848 79.629 C 806.426 79.629 808.272 80.381 809.385 81.885 C 810.498 83.389 811.055 85.625 811.055 88.594 C 811.055 88.867 811.016 89.668 810.938 90.996 C 810.859 92.324 810.752 94.053 810.615 96.182 C 810.479 98.311 810.312 100.781 810.117 103.594 C 809.922 106.406 809.697 109.424 809.443 112.647 C 809.189 115.869 808.906 119.229 808.594 122.725 C 808.281 126.221 807.949 129.707 807.598 133.184 L 808.184 133.242 C 810.059 125.586 812.178 118.447 814.541 111.826 C 816.904 105.205 819.561 99.453 822.51 94.57 C 825.459 89.688 828.701 85.85 832.236 83.057 C 835.771 80.264 839.648 78.867 843.867 78.867 C 845.352 78.867 846.738 79.102 848.027 79.57 C 849.316 80.039 850.43 80.693 851.367 81.533 C 852.305 82.373 853.047 83.369 853.594 84.521 C 854.141 85.674 854.414 86.934 854.414 88.301 C 854.414 90.059 854.033 91.748 853.272 93.369 C 852.51 94.99 851.309 96.426 849.668 97.676 L 849.199 97.676 C 847.559 96.309 846.006 95.322 844.541 94.717 C 843.076 94.111 841.523 93.809 839.883 93.809 C 838.125 93.809 836.426 94.141 834.785 94.805 C 833.145 95.469 831.641 96.426 830.273 97.676 C 828.047 99.707 825.977 102.393 824.063 105.732 C 822.148 109.072 820.4 112.773 818.818 116.836 C 817.236 120.898 815.811 125.166 814.541 129.639 C 813.271 134.111 812.178 138.467 811.26 142.705 C 810.342 146.943 809.6 150.928 809.033 154.658 C 808.467 158.389 808.066 161.523 807.832 164.063 M 878.438 83.789 C 880.273 83.867 882.061 83.926 883.799 83.965 C 885.537 84.004 887.158 84.043 888.662 84.082 C 890.166 84.121 891.533 84.141 892.764 84.141 C 893.994 84.141 895.02 84.141 895.84 84.141 C 899.395 84.141 902.305 83.926 904.57 83.496 C 904.766 84.16 904.922 84.766 905.039 85.313 C 905.156 85.859 905.215 86.367 905.215 86.836 C 905.215 88.555 904.502 89.668 903.076 90.176 C 901.65 90.684 899.59 90.938 896.895 90.938 C 894.316 90.938 891.436 90.781 888.252 90.469 C 885.068 90.156 881.582 89.863 877.793 89.59 C 877.363 93.77 877.002 97.842 876.709 101.807 C 876.416 105.772 876.182 109.512 876.006 113.027 C 875.83 116.543 875.703 119.805 875.625 122.813 C 875.547 125.82 875.508 128.438 875.508 130.664 C 875.508 134.844 875.723 138.574 876.152 141.856 C 876.582 145.137 877.344 147.92 878.438 150.205 C 879.531 152.49 881.035 154.238 882.949 155.449 C 884.863 156.66 887.285 157.266 890.215 157.266 C 892.324 157.266 894.678 156.895 897.275 156.152 C 899.873 155.41 902.832 154.219 906.152 152.578 C 907.207 153.633 907.812 154.922 907.969 156.445 C 905.547 158.047 903.106 159.502 900.645 160.811 C 898.184 162.119 895.762 163.242 893.379 164.18 C 890.996 165.117 888.691 165.84 886.465 166.348 C 884.238 166.856 882.129 167.109 880.137 167.109 C 877.52 167.109 875.127 166.621 872.959 165.645 C 870.791 164.668 868.916 162.969 867.334 160.547 C 865.752 158.125 864.522 154.844 863.643 150.703 C 862.764 146.563 862.324 141.328 862.324 135 C 862.324 127.07 862.549 119.277 862.998 111.621 C 863.447 103.965 864.043 96.543 864.785 89.355 C 863.145 89.395 861.631 89.473 860.244 89.59 C 858.857 89.707 857.598 89.902 856.465 90.176 C 856.426 90.059 856.406 89.902 856.406 89.707 L 856.406 89.355 C 856.406 87.754 857.217 86.553 858.838 85.752 C 860.459 84.951 862.637 84.336 865.371 83.906 C 865.84 79.219 866.348 74.746 866.895 70.488 C 867.441 66.23 867.979 62.275 868.506 58.623 C 869.033 54.971 869.551 51.65 870.059 48.662 C 870.566 45.674 871.016 43.105 871.406 40.957 C 871.602 39.941 871.963 39.102 872.49 38.438 C 873.018 37.773 873.633 37.246 874.336 36.855 C 875.039 36.465 875.801 36.191 876.621 36.035 C 877.441 35.879 878.242 35.801 879.023 35.801 C 880.313 35.801 881.475 35.938 882.51 36.211 C 883.545 36.484 884.512 36.875 885.41 37.383 C 883.77 44.805 882.393 52.471 881.279 60.381 C 880.166 68.291 879.219 76.094 878.438 83.789" transform="translate(78 126) scale(0.895)" fill="url(#titleSilver)" stroke="#26303a" stroke-width="2.6" stroke-linejoin="round" paint-order="stroke fill" filter="url(#softShadow)"/>
  </g>
  <g id="start-layer">
    <line x1="388" y1="1638" x2="468" y2="1638" stroke="#a0784c" stroke-width="2" opacity="0.72"/>
    <line x1="612" y1="1638" x2="692" y2="1638" stroke="#a0784c" stroke-width="2" opacity="0.72"/>
    <path d="M 5.797 44.707 C 6.161 46.311 6.654 47.578 7.273 48.508 C 7.893 49.438 8.695 50.126 9.68 50.572 C 10.664 51.019 11.931 51.242 13.48 51.242 C 15.613 51.242 17.249 50.686 18.389 49.574 C 19.528 48.462 20.098 46.84 20.098 44.707 C 20.098 43.34 19.861 42.191 19.387 41.262 C 18.913 40.332 18.138 39.457 17.063 38.637 C 15.987 37.816 14.346 36.859 12.141 35.766 C 10.008 34.708 8.322 33.674 7.082 32.662 C 5.842 31.65 4.917 30.552 4.307 29.367 C 3.696 28.182 3.391 26.888 3.391 25.484 C 3.391 23.443 3.869 21.67 4.826 20.166 C 5.783 18.662 7.187 17.5 9.037 16.68 C 10.887 15.859 13.007 15.449 15.395 15.449 C 16.78 15.449 18.133 15.522 19.455 15.668 C 20.777 15.814 22.431 16.142 24.418 16.652 L 24.418 24.035 L 21.711 24.035 C 21.292 22.431 20.763 21.182 20.125 20.289 C 19.487 19.396 18.74 18.771 17.883 18.416 C 17.026 18.061 15.914 17.883 14.547 17.883 C 13.362 17.883 12.3 18.102 11.361 18.539 C 10.423 18.977 9.68 19.637 9.133 20.521 C 8.586 21.406 8.313 22.458 8.313 23.68 C 8.313 24.974 8.545 26.068 9.01 26.961 C 9.475 27.854 10.199 28.684 11.184 29.449 C 12.168 30.215 13.626 31.072 15.559 32.02 C 17.892 33.186 19.701 34.271 20.986 35.273 C 22.271 36.276 23.274 37.42 23.994 38.705 C 24.714 39.99 25.074 41.49 25.074 43.203 C 25.074 45.117 24.773 46.735 24.172 48.057 C 23.57 49.378 22.736 50.454 21.67 51.283 C 20.604 52.113 19.327 52.714 17.842 53.088 C 16.356 53.462 14.729 53.648 12.961 53.648 C 10.099 53.648 6.799 53.165 3.063 52.199 L 3.063 44.707 Z M 41.918 15.887 L 71.504 15.887 L 71.504 25.402 L 68.824 25.402 C 68.423 23.835 68.027 22.595 67.635 21.684 C 67.243 20.772 66.828 20.079 66.391 19.605 C 65.953 19.132 65.484 18.794 64.982 18.594 C 64.481 18.393 63.729 18.293 62.727 18.293 L 59.254 18.293 L 59.254 46.293 C 59.254 47.368 59.313 48.225 59.432 48.863 C 59.55 49.501 59.732 50.007 59.979 50.381 C 60.225 50.755 60.557 51.046 60.977 51.256 C 61.396 51.465 62.052 51.671 62.945 51.871 L 62.945 53.211 L 50.449 53.211 L 50.449 51.871 C 50.996 51.743 51.479 51.607 51.898 51.461 C 52.318 51.315 52.66 51.137 52.924 50.928 C 53.188 50.718 53.407 50.449 53.58 50.121 C 53.753 49.793 53.89 49.346 53.99 48.781 C 54.09 48.216 54.141 47.387 54.141 46.293 L 54.141 18.293 L 50.695 18.293 C 49.839 18.293 49.132 18.375 48.576 18.539 C 48.02 18.703 47.505 19.045 47.031 19.564 C 46.557 20.084 46.124 20.822 45.732 21.779 C 45.34 22.736 44.971 23.944 44.625 25.402 L 41.918 25.402 Z M 107.406 53.211 L 107.406 51.871 C 108.318 51.689 108.997 51.488 109.443 51.27 C 109.89 51.051 110.223 50.745 110.441 50.354 C 110.66 49.962 110.77 49.438 110.77 48.781 C 110.77 48.161 110.697 47.492 110.551 46.771 C 110.405 46.051 110.195 45.245 109.922 44.352 L 108.91 40.824 L 96.168 40.824 L 95.238 43.504 C 94.764 44.853 94.454 45.874 94.309 46.566 C 94.163 47.259 94.09 47.888 94.09 48.453 C 94.09 49.547 94.368 50.349 94.924 50.859 C 95.48 51.37 96.332 51.707 97.48 51.871 L 97.48 53.211 L 85.805 53.211 L 85.805 51.871 C 86.826 51.707 87.714 51.115 88.471 50.094 C 89.227 49.073 89.961 47.615 90.672 45.719 L 102.074 15.449 L 106.395 15.449 L 115.691 45.938 C 116.129 47.359 116.516 48.444 116.854 49.191 C 117.191 49.939 117.596 50.522 118.07 50.941 C 118.544 51.361 119.191 51.671 120.012 51.871 L 120.012 53.211 Z M 96.906 38.445 L 108.336 38.445 L 103.141 20.809 Z M 144.512 36.996 L 144.512 46.293 C 144.512 47.605 144.562 48.558 144.662 49.15 C 144.762 49.743 144.913 50.189 145.113 50.49 C 145.314 50.791 145.587 51.037 145.934 51.229 C 146.28 51.42 146.872 51.634 147.711 51.871 L 147.711 53.211 L 136.172 53.211 L 136.172 51.871 C 137.302 51.579 138.059 51.256 138.441 50.9 C 138.824 50.545 139.075 50.039 139.193 49.383 C 139.312 48.727 139.371 47.724 139.371 46.375 L 139.371 22.723 C 139.371 21.465 139.326 20.549 139.234 19.975 C 139.143 19.4 138.993 18.954 138.783 18.635 C 138.574 18.316 138.296 18.061 137.949 17.869 C 137.603 17.678 137.01 17.464 136.172 17.227 L 136.172 15.887 L 149.707 15.887 C 153.973 15.887 157.163 16.661 159.277 18.211 C 161.392 19.76 162.449 22.167 162.449 25.43 C 162.449 27.927 161.761 30.051 160.385 31.801 C 159.009 33.551 156.944 34.918 154.191 35.902 L 154.191 36.121 C 155.303 36.577 156.256 37.229 157.049 38.076 C 157.842 38.924 158.721 40.241 159.688 42.027 L 162.148 46.512 C 162.859 47.824 163.47 48.827 163.981 49.52 C 164.491 50.212 165.01 50.741 165.539 51.105 C 166.068 51.47 166.77 51.725 167.645 51.871 L 167.645 53.211 L 160.07 53.211 C 159.378 52.245 158.721 51.206 158.102 50.094 C 157.482 48.982 156.871 47.852 156.27 46.703 L 153.863 42.137 C 153.134 40.751 152.537 39.73 152.072 39.074 C 151.607 38.418 151.179 37.958 150.787 37.693 C 150.395 37.429 149.976 37.247 149.529 37.146 C 149.083 37.046 148.413 36.996 147.52 36.996 M 144.512 18.402 L 144.512 34.645 L 147.602 34.645 C 149.188 34.645 150.473 34.531 151.457 34.303 C 152.441 34.075 153.353 33.642 154.191 33.004 C 155.03 32.366 155.7 31.477 156.201 30.338 C 156.703 29.199 156.953 27.799 156.953 26.141 C 156.953 24.409 156.657 22.969 156.065 21.82 C 155.472 20.672 154.574 19.797 153.371 19.195 C 152.168 18.594 150.546 18.293 148.504 18.293 C 146.863 18.293 145.533 18.329 144.512 18.402 M 181.781 15.887 L 211.367 15.887 L 211.367 25.402 L 208.688 25.402 C 208.287 23.835 207.89 22.595 207.498 21.684 C 207.106 20.772 206.691 20.079 206.254 19.605 C 205.816 19.132 205.347 18.794 204.846 18.594 C 204.344 18.393 203.592 18.293 202.59 18.293 L 199.117 18.293 L 199.117 46.293 C 199.117 47.368 199.176 48.225 199.295 48.863 C 199.413 49.501 199.596 50.007 199.842 50.381 C 200.088 50.755 200.421 51.046 200.84 51.256 C 201.259 51.465 201.915 51.671 202.809 51.871 L 202.809 53.211 L 190.313 53.211 L 190.313 51.871 C 190.859 51.743 191.342 51.607 191.762 51.461 C 192.181 51.315 192.523 51.137 192.787 50.928 C 193.051 50.718 193.27 50.449 193.443 50.121 C 193.617 49.793 193.753 49.346 193.854 48.781 C 193.954 48.216 194.004 47.387 194.004 46.293 L 194.004 18.293 L 190.559 18.293 C 189.702 18.293 188.995 18.375 188.44 18.539 C 187.884 18.703 187.369 19.045 186.895 19.564 C 186.421 20.084 185.988 20.822 185.596 21.779 C 185.204 22.736 184.835 23.944 184.488 25.402 L 181.781 25.402 Z" transform="translate(388.437 1586) scale(1.413641)" fill="#ffffff" stroke="#27313b" stroke-width="1.2" stroke-linejoin="round" paint-order="stroke fill" filter="url(#smallShadow)"/>
    <path d="M 0.773 6.809 L 13.453 6.809 L 13.453 10.887 L 12.305 10.887 C 12.133 10.215 11.963 9.684 11.795 9.293 C 11.627 8.902 11.449 8.605 11.262 8.402 C 11.074 8.199 10.873 8.055 10.658 7.969 C 10.443 7.883 10.121 7.84 9.691 7.84 L 8.203 7.84 L 8.203 19.84 C 8.203 20.301 8.229 20.668 8.279 20.941 C 8.33 21.215 8.408 21.432 8.514 21.592 C 8.619 21.752 8.762 21.877 8.941 21.967 C 9.121 22.057 9.402 22.145 9.785 22.23 L 9.785 22.805 L 4.43 22.805 L 4.43 22.23 C 4.664 22.176 4.871 22.117 5.051 22.055 C 5.23 21.992 5.377 21.916 5.49 21.826 C 5.604 21.736 5.697 21.621 5.771 21.48 C 5.846 21.34 5.904 21.148 5.947 20.906 C 5.99 20.664 6.012 20.309 6.012 19.84 L 6.012 7.84 L 4.535 7.84 C 4.168 7.84 3.865 7.875 3.627 7.945 C 3.389 8.016 3.168 8.162 2.965 8.385 C 2.762 8.607 2.576 8.924 2.408 9.334 C 2.24 9.744 2.082 10.262 1.934 10.887 L 0.773 10.887 Z M 20.262 21.129 L 20.086 21.082 C 19.406 21.777 18.768 22.27 18.17 22.559 C 17.572 22.848 16.938 22.992 16.266 22.992 C 15.672 22.992 15.148 22.877 14.695 22.646 C 14.242 22.416 13.895 22.092 13.652 21.674 C 13.41 21.256 13.289 20.773 13.289 20.227 C 13.289 19.086 13.854 18.205 14.982 17.584 C 16.111 16.963 17.805 16.602 20.063 16.5 L 20.063 15.738 C 20.063 14.926 19.984 14.285 19.828 13.816 C 19.672 13.348 19.426 13.004 19.09 12.785 C 18.754 12.566 18.305 12.457 17.742 12.457 C 17.133 12.457 16.643 12.617 16.271 12.938 C 15.9 13.258 15.621 13.738 15.434 14.379 L 13.898 14.379 L 13.898 12.855 C 14.648 12.465 15.273 12.178 15.773 11.994 C 16.273 11.811 16.773 11.666 17.273 11.561 C 17.773 11.455 18.281 11.402 18.797 11.402 C 19.57 11.402 20.191 11.525 20.66 11.771 C 21.129 12.018 21.48 12.395 21.715 12.902 C 21.949 13.41 22.066 14.176 22.066 15.199 L 22.066 19.277 C 22.066 19.855 22.07 20.264 22.078 20.502 C 22.086 20.74 22.109 20.961 22.148 21.164 C 22.188 21.367 22.246 21.529 22.324 21.65 C 22.402 21.771 22.518 21.875 22.67 21.961 C 22.822 22.047 23.07 22.137 23.414 22.23 L 23.414 22.805 L 20.203 22.805 Z M 20.063 17.461 C 18.477 17.477 17.289 17.688 16.5 18.094 C 15.711 18.5 15.316 19.113 15.316 19.934 C 15.316 20.379 15.406 20.73 15.586 20.988 C 15.766 21.246 15.992 21.424 16.266 21.521 C 16.539 21.619 16.863 21.668 17.238 21.668 C 17.77 21.668 18.252 21.539 18.686 21.281 C 19.119 21.023 19.457 20.695 19.699 20.297 C 19.941 19.898 20.063 19.504 20.063 19.113 M 28.383 22.453 L 28.383 24.926 C 28.383 25.434 28.4 25.813 28.436 26.063 C 28.471 26.313 28.533 26.51 28.623 26.654 C 28.713 26.799 28.842 26.918 29.01 27.012 C 29.178 27.105 29.449 27.191 29.824 27.27 L 29.824 27.844 L 25.043 27.844 L 25.043 27.27 C 25.324 27.191 25.553 27.111 25.729 27.029 C 25.904 26.947 26.039 26.826 26.133 26.666 C 26.227 26.506 26.289 26.289 26.32 26.016 C 26.352 25.742 26.367 25.379 26.367 24.926 L 26.367 14.871 C 26.367 14.309 26.359 13.908 26.344 13.67 C 26.328 13.432 26.297 13.234 26.25 13.078 C 26.203 12.922 26.135 12.793 26.045 12.691 C 25.955 12.59 25.834 12.504 25.682 12.434 C 25.529 12.363 25.277 12.293 24.926 12.223 L 24.926 11.602 L 27.68 11.496 L 28.395 11.496 L 28.242 13.406 L 28.418 13.453 C 28.902 12.961 29.285 12.604 29.566 12.381 C 29.848 12.158 30.139 11.973 30.439 11.824 C 30.74 11.676 31.029 11.57 31.307 11.508 C 31.584 11.445 31.879 11.414 32.191 11.414 C 33.48 11.414 34.471 11.896 35.162 12.861 C 35.854 13.826 36.199 15.238 36.199 17.098 C 36.199 18.387 36.004 19.471 35.613 20.35 C 35.223 21.229 34.654 21.889 33.908 22.33 C 33.162 22.771 32.273 22.992 31.242 22.992 C 30.664 22.992 30.141 22.943 29.672 22.846 C 29.203 22.748 28.773 22.617 28.383 22.453 M 28.383 18.586 C 28.383 19.336 28.43 19.914 28.523 20.32 C 28.617 20.727 28.783 21.057 29.021 21.311 C 29.26 21.564 29.541 21.754 29.865 21.879 C 30.189 22.004 30.617 22.066 31.148 22.066 C 32.094 22.066 32.805 21.674 33.281 20.889 C 33.758 20.104 33.996 18.945 33.996 17.414 C 33.996 14.352 33.102 12.82 31.313 12.82 C 30.875 12.82 30.498 12.889 30.182 13.025 C 29.865 13.162 29.551 13.383 29.238 13.688 C 28.926 13.992 28.705 14.287 28.576 14.572 C 28.447 14.857 28.383 15.164 28.383 15.492 M 43.137 12.188 C 43.527 12.125 43.844 12.016 44.086 11.859 C 44.328 11.703 44.518 11.502 44.654 11.256 C 44.791 11.01 44.898 10.701 44.977 10.33 C 45.055 9.959 45.137 9.418 45.223 8.707 L 46.887 8.707 L 46.887 11.602 L 50.672 11.602 L 50.672 12.785 L 46.887 12.785 L 46.887 18 C 46.887 18.758 46.918 19.361 46.98 19.811 C 47.043 20.26 47.16 20.611 47.332 20.865 C 47.504 21.119 47.699 21.301 47.918 21.41 C 48.137 21.52 48.418 21.574 48.762 21.574 C 49.074 21.574 49.367 21.51 49.641 21.381 C 49.914 21.252 50.184 21.066 50.449 20.824 L 50.977 21.457 C 50.422 21.996 49.896 22.387 49.4 22.629 C 48.904 22.871 48.391 22.992 47.859 22.992 C 46.852 22.992 46.102 22.693 45.609 22.096 C 45.117 21.498 44.871 20.563 44.871 19.289 L 44.871 12.785 L 43.137 12.785 Z M 56.848 22.992 C 55.223 22.992 53.982 22.514 53.127 21.557 C 52.271 20.6 51.844 19.184 51.844 17.309 C 51.844 16.02 52.068 14.93 52.518 14.039 C 52.967 13.148 53.582 12.486 54.363 12.053 C 55.145 11.619 56.035 11.402 57.035 11.402 C 58.707 11.402 59.973 11.889 60.832 12.861 C 61.691 13.834 62.121 15.23 62.121 17.051 C 62.121 18.348 61.906 19.441 61.477 20.332 C 61.047 21.223 60.438 21.889 59.648 22.33 C 58.859 22.771 57.926 22.992 56.848 22.992 M 54.059 17.063 C 54.059 18.672 54.314 19.908 54.826 20.771 C 55.338 21.635 56.07 22.066 57.023 22.066 C 57.547 22.066 57.992 21.939 58.359 21.686 C 58.727 21.432 59.025 21.09 59.256 20.66 C 59.486 20.23 59.652 19.732 59.754 19.166 C 59.855 18.6 59.906 18.008 59.906 17.391 C 59.906 16.242 59.779 15.289 59.525 14.531 C 59.271 13.773 58.926 13.217 58.488 12.861 C 58.051 12.506 57.551 12.328 56.988 12.328 C 56.043 12.328 55.318 12.738 54.814 13.559 C 54.311 14.379 54.059 15.547 54.059 17.063 M 77.625 14.168 L 76.5 14.168 C 76.328 13.699 76.125 13.33 75.891 13.061 C 75.656 12.791 75.391 12.602 75.094 12.492 C 74.797 12.383 74.434 12.328 74.004 12.328 C 73.379 12.328 72.881 12.475 72.51 12.768 C 72.139 13.061 71.953 13.461 71.953 13.969 C 71.953 14.328 72.027 14.625 72.176 14.859 C 72.324 15.094 72.555 15.313 72.867 15.516 C 73.18 15.719 73.73 15.988 74.52 16.324 C 75.316 16.668 75.932 16.984 76.365 17.273 C 76.799 17.563 77.139 17.898 77.385 18.281 C 77.631 18.664 77.754 19.121 77.754 19.652 C 77.754 20.27 77.648 20.789 77.438 21.211 C 77.227 21.633 76.93 21.977 76.547 22.242 C 76.164 22.508 75.709 22.699 75.182 22.816 C 74.654 22.934 74.078 22.992 73.453 22.992 C 72.797 22.992 72.16 22.943 71.543 22.846 C 70.926 22.748 70.324 22.621 69.738 22.465 L 69.738 20.016 L 70.887 20.016 C 71.098 20.734 71.41 21.256 71.824 21.58 C 72.238 21.904 72.809 22.066 73.535 22.066 C 73.816 22.066 74.092 22.037 74.361 21.979 C 74.631 21.92 74.871 21.822 75.082 21.686 C 75.293 21.549 75.461 21.363 75.586 21.129 C 75.711 20.895 75.773 20.602 75.773 20.25 C 75.773 19.852 75.695 19.527 75.539 19.277 C 75.383 19.027 75.141 18.799 74.813 18.592 C 74.484 18.385 73.906 18.105 73.078 17.754 C 72.367 17.457 71.797 17.168 71.367 16.887 C 70.937 16.605 70.6 16.273 70.354 15.891 C 70.107 15.508 69.984 15.055 69.984 14.531 C 69.984 13.891 70.158 13.334 70.506 12.861 C 70.854 12.389 71.355 12.027 72.012 11.777 C 72.668 11.527 73.437 11.402 74.32 11.402 C 74.836 11.402 75.334 11.428 75.814 11.479 C 76.295 11.529 76.898 11.629 77.625 11.777 M 79.383 12.188 C 79.773 12.125 80.09 12.016 80.332 11.859 C 80.574 11.703 80.764 11.502 80.9 11.256 C 81.037 11.01 81.145 10.701 81.223 10.33 C 81.301 9.959 81.383 9.418 81.469 8.707 L 83.133 8.707 L 83.133 11.602 L 86.918 11.602 L 86.918 12.785 L 83.133 12.785 L 83.133 18 C 83.133 18.758 83.164 19.361 83.227 19.811 C 83.289 20.26 83.406 20.611 83.578 20.865 C 83.75 21.119 83.945 21.301 84.164 21.41 C 84.383 21.52 84.664 21.574 85.008 21.574 C 85.32 21.574 85.613 21.51 85.887 21.381 C 86.16 21.252 86.43 21.066 86.695 20.824 L 87.223 21.457 C 86.668 21.996 86.143 22.387 85.646 22.629 C 85.15 22.871 84.637 22.992 84.105 22.992 C 83.098 22.992 82.348 22.693 81.855 22.096 C 81.363 21.498 81.117 20.563 81.117 19.289 L 81.117 12.785 L 79.383 12.785 Z M 94.98 21.129 L 94.805 21.082 C 94.125 21.777 93.486 22.27 92.889 22.559 C 92.291 22.848 91.656 22.992 90.984 22.992 C 90.391 22.992 89.867 22.877 89.414 22.646 C 88.961 22.416 88.613 22.092 88.371 21.674 C 88.129 21.256 88.008 20.773 88.008 20.227 C 88.008 19.086 88.572 18.205 89.701 17.584 C 90.83 16.963 92.523 16.602 94.781 16.5 L 94.781 15.738 C 94.781 14.926 94.703 14.285 94.547 13.816 C 94.391 13.348 94.145 13.004 93.809 12.785 C 93.473 12.566 93.023 12.457 92.461 12.457 C 91.852 12.457 91.361 12.617 90.99 12.938 C 90.619 13.258 90.34 13.738 90.152 14.379 L 88.617 14.379 L 88.617 12.855 C 89.367 12.465 89.992 12.178 90.492 11.994 C 90.992 11.811 91.492 11.666 91.992 11.561 C 92.492 11.455 93 11.402 93.516 11.402 C 94.289 11.402 94.91 11.525 95.379 11.771 C 95.848 12.018 96.199 12.395 96.434 12.902 C 96.668 13.41 96.785 14.176 96.785 15.199 L 96.785 19.277 C 96.785 19.855 96.789 20.264 96.797 20.502 C 96.805 20.74 96.828 20.961 96.867 21.164 C 96.906 21.367 96.965 21.529 97.043 21.65 C 97.121 21.771 97.236 21.875 97.389 21.961 C 97.541 22.047 97.789 22.137 98.133 22.23 L 98.133 22.805 L 94.922 22.805 Z M 94.781 17.461 C 93.195 17.477 92.008 17.688 91.219 18.094 C 90.43 18.5 90.035 19.113 90.035 19.934 C 90.035 20.379 90.125 20.73 90.305 20.988 C 90.484 21.246 90.711 21.424 90.984 21.521 C 91.258 21.619 91.582 21.668 91.957 21.668 C 92.488 21.668 92.971 21.539 93.404 21.281 C 93.838 21.023 94.176 20.695 94.418 20.297 C 94.66 19.898 94.781 19.504 94.781 19.113 M 103.09 13.547 L 103.254 13.582 C 103.684 13.059 104.082 12.646 104.449 12.346 C 104.816 12.045 105.213 11.813 105.639 11.648 C 106.064 11.484 106.547 11.402 107.086 11.402 C 107.539 11.402 107.949 11.426 108.316 11.473 L 108.316 14.168 L 106.992 14.168 C 106.805 13.746 106.606 13.439 106.395 13.248 C 106.184 13.057 105.895 12.961 105.527 12.961 C 105.246 12.961 104.967 13.043 104.69 13.207 C 104.412 13.371 104.145 13.609 103.887 13.922 C 103.629 14.234 103.451 14.527 103.354 14.801 C 103.256 15.074 103.207 15.398 103.207 15.773 L 103.207 19.875 C 103.207 20.586 103.25 21.076 103.336 21.346 C 103.422 21.615 103.564 21.813 103.764 21.938 C 103.963 22.063 104.262 22.16 104.66 22.23 L 104.66 22.805 L 99.938 22.805 L 99.938 22.23 C 100.234 22.137 100.447 22.055 100.576 21.984 C 100.705 21.914 100.816 21.816 100.91 21.691 C 101.004 21.566 101.074 21.375 101.121 21.117 C 101.168 20.859 101.191 20.457 101.191 19.91 L 101.191 14.801 C 101.191 14.301 101.184 13.898 101.168 13.594 C 101.152 13.289 101.098 13.045 101.004 12.861 C 100.91 12.678 100.768 12.541 100.576 12.451 C 100.385 12.361 100.113 12.285 99.762 12.223 L 99.762 11.613 L 102.504 11.496 L 103.219 11.496 Z M 109.148 12.188 C 109.539 12.125 109.856 12.016 110.098 11.859 C 110.34 11.703 110.529 11.502 110.666 11.256 C 110.803 11.01 110.91 10.701 110.988 10.33 C 111.066 9.959 111.148 9.418 111.234 8.707 L 112.898 8.707 L 112.898 11.602 L 116.684 11.602 L 116.684 12.785 L 112.898 12.785 L 112.898 18 C 112.898 18.758 112.93 19.361 112.992 19.811 C 113.055 20.26 113.172 20.611 113.344 20.865 C 113.516 21.119 113.711 21.301 113.93 21.41 C 114.148 21.52 114.43 21.574 114.773 21.574 C 115.086 21.574 115.379 21.51 115.652 21.381 C 115.926 21.252 116.195 21.066 116.461 20.824 L 116.988 21.457 C 116.434 21.996 115.908 22.387 115.412 22.629 C 114.916 22.871 114.402 22.992 113.871 22.992 C 112.863 22.992 112.113 22.693 111.621 22.096 C 111.129 21.498 110.883 20.563 110.883 19.289 L 110.883 12.785 L 109.148 12.785 Z" transform="translate(458.824 1668) scale(1.378644)" fill="#f2f5f9" opacity="0.74" filter="url(#smallShadow)"/>
  </g>
</svg>

